<svg width="1921" height="1336" viewBox="0 0 1921 1336" fill="none" xmlns="http://www.w3.org/2000/svg">
<path fill-rule="evenodd" clip-rule="evenodd" d="M1159.66 166.617C1172.47 149.803 1180.08 128.809 1180.08 106.038C1180.08 50.7886 1135.29 6 1080.04 6C1024.79 6 980 50.7886 980 106.038C980 128.809 987.608 149.803 1000.42 166.617C987.608 183.43 980 204.424 980 227.195C980 282.445 1024.79 327.233 1080.04 327.233C1135.29 327.233 1180.08 282.445 1180.08 227.195C1180.08 204.424 1172.47 183.43 1159.66 166.617Z" fill="url(#paint0_linear_2_284)"/>
<path fill-rule="evenodd" clip-rule="evenodd" d="M1159.66 500.617C1172.47 483.803 1180.08 462.809 1180.08 440.038C1180.08 384.789 1135.29 340 1080.04 340C1024.79 340 980 384.789 980 440.038C980 462.809 987.608 483.803 1000.42 500.617C987.608 517.43 980 538.424 980 561.195C980 616.445 1024.79 661.233 1080.04 661.233C1135.29 661.233 1180.08 616.445 1180.08 561.195C1180.08 538.424 1172.47 517.43 1159.66 500.617Z" fill="url(#paint1_linear_2_284)"/>
<path fill-rule="evenodd" clip-rule="evenodd" d="M1159.66 834.617C1172.47 817.803 1180.08 796.809 1180.08 774.038C1180.08 718.789 1135.29 674 1080.04 674C1024.79 674 980 718.789 980 774.038C980 796.809 987.608 817.803 1000.42 834.617C987.608 851.43 980 872.424 980 895.195C980 950.445 1024.79 995.233 1080.04 995.233C1135.29 995.233 1180.08 950.445 1180.08 895.195C1180.08 872.424 1172.47 851.43 1159.66 834.617Z" fill="url(#paint2_linear_2_284)"/>
<path fill-rule="evenodd" clip-rule="evenodd" d="M1159.66 1168.62C1172.47 1151.8 1180.08 1130.81 1180.08 1108.04C1180.08 1052.79 1135.29 1008 1080.04 1008C1024.79 1008 980 1052.79 980 1108.04C980 1130.81 987.608 1151.8 1000.42 1168.62C987.608 1185.43 980 1206.42 980 1229.2C980 1284.44 1024.79 1329.23 1080.04 1329.23C1135.29 1329.23 1180.08 1284.44 1180.08 1229.2C1180.08 1206.42 1172.47 1185.43 1159.66 1168.62Z" fill="url(#paint3_linear_2_284)"/>
<path fill-rule="evenodd" clip-rule="evenodd" d="M1879.66 166.617C1892.47 149.803 1900.08 128.809 1900.08 106.038C1900.08 50.7886 1855.29 6 1800.04 6C1744.79 6 1700 50.7886 1700 106.038C1700 128.809 1707.61 149.803 1720.42 166.617C1707.61 183.43 1700 204.424 1700 227.195C1700 282.445 1744.79 327.233 1800.04 327.233C1855.29 327.233 1900.08 282.445 1900.08 227.195C1900.08 204.424 1892.47 183.43 1879.66 166.617Z" fill="url(#paint4_linear_2_284)"/>
<path fill-rule="evenodd" clip-rule="evenodd" d="M1879.66 500.617C1892.47 483.803 1900.08 462.809 1900.08 440.038C1900.08 384.789 1855.29 340 1800.04 340C1744.79 340 1700 384.789 1700 440.038C1700 462.809 1707.61 483.803 1720.42 500.617C1707.61 517.43 1700 538.424 1700 561.195C1700 616.445 1744.79 661.233 1800.04 661.233C1855.29 661.233 1900.08 616.445 1900.08 561.195C1900.08 538.424 1892.47 517.43 1879.66 500.617Z" fill="url(#paint5_linear_2_284)"/>
<path fill-rule="evenodd" clip-rule="evenodd" d="M1879.66 834.617C1892.47 817.803 1900.08 796.809 1900.08 774.038C1900.08 718.789 1855.29 674 1800.04 674C1744.79 674 1700 718.789 1700 774.038C1700 796.809 1707.61 817.803 1720.42 834.617C1707.61 851.43 1700 872.424 1700 895.195C1700 950.445 1744.79 995.233 1800.04 995.233C1855.29 995.233 1900.08 950.445 1900.08 895.195C1900.08 872.424 1892.47 851.43 1879.66 834.617Z" fill="url(#paint6_linear_2_284)"/>
<path fill-rule="evenodd" clip-rule="evenodd" d="M1879.66 1168.62C1892.47 1151.8 1900.08 1130.81 1900.08 1108.04C1900.08 1052.79 1855.29 1008 1800.04 1008C1744.79 1008 1700 1052.79 1700 1108.04C1700 1130.81 1707.61 1151.8 1720.42 1168.62C1707.61 1185.43 1700 1206.42 1700 1229.2C1700 1284.44 1744.79 1329.23 1800.04 1329.23C1855.29 1329.23 1900.08 1284.44 1900.08 1229.2C1900.08 1206.42 1892.47 1185.43 1879.66 1168.62Z" fill="url(#paint7_linear_2_284)"/>
<path fill-rule="evenodd" clip-rule="evenodd" d="M1639.66 166.617C1652.47 149.803 1660.08 128.809 1660.08 106.038C1660.08 50.7886 1615.29 6 1560.04 6C1504.79 6 1460 50.7886 1460 106.038C1460 128.809 1467.61 149.803 1480.42 166.617C1467.61 183.43 1460 204.424 1460 227.195C1460 282.445 1504.79 327.233 1560.04 327.233C1615.29 327.233 1660.08 282.445 1660.08 227.195C1660.08 204.424 1652.47 183.43 1639.66 166.617Z" fill="url(#paint8_linear_2_284)"/>
<path fill-rule="evenodd" clip-rule="evenodd" d="M1639.66 500.617C1652.47 483.803 1660.08 462.809 1660.08 440.038C1660.08 384.789 1615.29 340 1560.04 340C1504.79 340 1460 384.789 1460 440.038C1460 462.809 1467.61 483.803 1480.42 500.617C1467.61 517.43 1460 538.424 1460 561.195C1460 616.445 1504.79 661.233 1560.04 661.233C1615.29 661.233 1660.08 616.445 1660.08 561.195C1660.08 538.424 1652.47 517.43 1639.66 500.617Z" fill="url(#paint9_linear_2_284)"/>
<path fill-rule="evenodd" clip-rule="evenodd" d="M1639.66 834.617C1652.47 817.803 1660.08 796.809 1660.08 774.038C1660.08 718.789 1615.29 674 1560.04 674C1504.79 674 1460 718.789 1460 774.038C1460 796.809 1467.61 817.803 1480.42 834.617C1467.61 851.43 1460 872.424 1460 895.195C1460 950.445 1504.79 995.233 1560.04 995.233C1615.29 995.233 1660.08 950.445 1660.08 895.195C1660.08 872.424 1652.47 851.43 1639.66 834.617Z" fill="url(#paint10_linear_2_284)"/>
<path fill-rule="evenodd" clip-rule="evenodd" d="M1639.66 1168.62C1652.47 1151.8 1660.08 1130.81 1660.08 1108.04C1660.08 1052.79 1615.29 1008 1560.04 1008C1504.79 1008 1460 1052.79 1460 1108.04C1460 1130.81 1467.61 1151.8 1480.42 1168.62C1467.61 1185.43 1460 1206.42 1460 1229.2C1460 1284.44 1504.79 1329.23 1560.04 1329.23C1615.29 1329.23 1660.08 1284.44 1660.08 1229.2C1660.08 1206.42 1652.47 1185.43 1639.66 1168.62Z" fill="url(#paint11_linear_2_284)"/>
<path fill-rule="evenodd" clip-rule="evenodd" d="M1399.66 166.617C1412.47 149.803 1420.08 128.809 1420.08 106.038C1420.08 50.7886 1375.29 6 1320.04 6C1264.79 6 1220 50.7886 1220 106.038C1220 128.809 1227.61 149.803 1240.42 166.617C1227.61 183.43 1220 204.424 1220 227.195C1220 282.445 1264.79 327.233 1320.04 327.233C1375.29 327.233 1420.08 282.445 1420.08 227.195C1420.08 204.424 1412.47 183.43 1399.66 166.617Z" fill="url(#paint12_linear_2_284)"/>
<path fill-rule="evenodd" clip-rule="evenodd" d="M1399.66 500.617C1412.47 483.803 1420.08 462.809 1420.08 440.038C1420.08 384.789 1375.29 340 1320.04 340C1264.79 340 1220 384.789 1220 440.038C1220 462.809 1227.61 483.803 1240.42 500.617C1227.61 517.43 1220 538.424 1220 561.195C1220 616.445 1264.79 661.233 1320.04 661.233C1375.29 661.233 1420.08 616.445 1420.08 561.195C1420.08 538.424 1412.47 517.43 1399.66 500.617Z" fill="url(#paint13_linear_2_284)"/>
<path fill-rule="evenodd" clip-rule="evenodd" d="M1399.66 834.617C1412.47 817.803 1420.08 796.809 1420.08 774.038C1420.08 718.789 1375.29 674 1320.04 674C1264.79 674 1220 718.789 1220 774.038C1220 796.809 1227.61 817.803 1240.42 834.617C1227.61 851.43 1220 872.424 1220 895.195C1220 950.445 1264.79 995.233 1320.04 995.233C1375.29 995.233 1420.08 950.445 1420.08 895.195C1420.08 872.424 1412.47 851.43 1399.66 834.617Z" fill="url(#paint14_linear_2_284)"/>
<path fill-rule="evenodd" clip-rule="evenodd" d="M1399.66 1168.62C1412.47 1151.8 1420.08 1130.81 1420.08 1108.04C1420.08 1052.79 1375.29 1008 1320.04 1008C1264.79 1008 1220 1052.79 1220 1108.04C1220 1130.81 1227.61 1151.8 1240.42 1168.62C1227.61 1185.43 1220 1206.42 1220 1229.2C1220 1284.44 1264.79 1329.23 1320.04 1329.23C1375.29 1329.23 1420.08 1284.44 1420.08 1229.2C1420.08 1206.42 1412.47 1185.43 1399.66 1168.62Z" fill="url(#paint15_linear_2_284)"/>
<path fill-rule="evenodd" clip-rule="evenodd" d="M919.655 166.617C932.468 149.803 940.076 128.809 940.076 106.038C940.076 50.7886 895.288 6 840.038 6C784.789 6 740 50.7886 740 106.038C740 128.809 747.608 149.803 760.421 166.617C747.608 183.43 740 204.424 740 227.195C740 282.445 784.789 327.233 840.038 327.233C895.288 327.233 940.076 282.445 940.076 227.195C940.076 204.424 932.468 183.43 919.655 166.617Z" fill="url(#paint16_linear_2_284)"/>
<path fill-rule="evenodd" clip-rule="evenodd" d="M919.655 500.617C932.468 483.803 940.076 462.809 940.076 440.038C940.076 384.789 895.288 340 840.038 340C784.789 340 740 384.789 740 440.038C740 462.809 747.608 483.803 760.421 500.617C747.608 517.43 740 538.424 740 561.195C740 616.445 784.789 661.233 840.038 661.233C895.288 661.233 940.076 616.445 940.076 561.195C940.076 538.424 932.468 517.43 919.655 500.617Z" fill="url(#paint17_linear_2_284)"/>
<path fill-rule="evenodd" clip-rule="evenodd" d="M919.655 834.617C932.468 817.803 940.076 796.809 940.076 774.038C940.076 718.789 895.288 674 840.038 674C784.789 674 740 718.789 740 774.038C740 796.809 747.608 817.803 760.421 834.617C747.608 851.43 740 872.424 740 895.195C740 950.445 784.789 995.233 840.038 995.233C895.288 995.233 940.076 950.445 940.076 895.195C940.076 872.424 932.468 851.43 919.655 834.617Z" fill="url(#paint18_linear_2_284)"/>
<path fill-rule="evenodd" clip-rule="evenodd" d="M919.655 1168.62C932.468 1151.8 940.076 1130.81 940.076 1108.04C940.076 1052.79 895.288 1008 840.038 1008C784.789 1008 740 1052.79 740 1108.04C740 1130.81 747.608 1151.8 760.421 1168.62C747.608 1185.43 740 1206.42 740 1229.2C740 1284.44 784.789 1329.23 840.038 1329.23C895.288 1329.23 940.076 1284.44 940.076 1229.2C940.076 1206.42 932.468 1185.43 919.655 1168.62Z" fill="url(#paint19_linear_2_284)"/>
<path fill-rule="evenodd" clip-rule="evenodd" d="M679.655 166.617C692.468 149.803 700.076 128.809 700.076 106.038C700.076 50.7886 655.288 6 600.038 6C544.789 6 500 50.7886 500 106.038C500 128.809 507.608 149.803 520.421 166.617C507.608 183.43 500 204.424 500 227.195C500 282.445 544.789 327.233 600.038 327.233C655.288 327.233 700.076 282.445 700.076 227.195C700.076 204.424 692.468 183.43 679.655 166.617Z" fill="url(#paint20_linear_2_284)"/>
<path fill-rule="evenodd" clip-rule="evenodd" d="M679.655 500.617C692.468 483.803 700.076 462.809 700.076 440.038C700.076 384.789 655.288 340 600.038 340C544.789 340 500 384.789 500 440.038C500 462.809 507.608 483.803 520.421 500.617C507.608 517.43 500 538.424 500 561.195C500 616.445 544.789 661.233 600.038 661.233C655.288 661.233 700.076 616.445 700.076 561.195C700.076 538.424 692.468 517.43 679.655 500.617Z" fill="url(#paint21_linear_2_284)"/>
<path fill-rule="evenodd" clip-rule="evenodd" d="M679.655 834.617C692.468 817.803 700.076 796.809 700.076 774.038C700.076 718.789 655.288 674 600.038 674C544.789 674 500 718.789 500 774.038C500 796.809 507.608 817.803 520.421 834.617C507.608 851.43 500 872.424 500 895.195C500 950.445 544.789 995.233 600.038 995.233C655.288 995.233 700.076 950.445 700.076 895.195C700.076 872.424 692.468 851.43 679.655 834.617Z" fill="url(#paint22_linear_2_284)"/>
<path fill-rule="evenodd" clip-rule="evenodd" d="M679.655 1168.62C692.468 1151.8 700.076 1130.81 700.076 1108.04C700.076 1052.79 655.288 1008 600.038 1008C544.789 1008 500 1052.79 500 1108.04C500 1130.81 507.608 1151.8 520.421 1168.62C507.608 1185.43 500 1206.42 500 1229.2C500 1284.44 544.789 1329.23 600.038 1329.23C655.288 1329.23 700.076 1284.44 700.076 1229.2C700.076 1206.42 692.468 1185.43 679.655 1168.62Z" fill="url(#paint23_linear_2_284)"/>
<path fill-rule="evenodd" clip-rule="evenodd" d="M199.655 834.617C212.468 817.803 220.076 796.809 220.076 774.038C220.076 718.789 175.288 674 120.038 674C64.7886 674 20 718.789 20 774.038C20 796.809 27.608 817.803 40.4208 834.617C27.608 851.43 20 872.424 20 895.195C20 950.445 64.7886 995.233 120.038 995.233C175.288 995.233 220.076 950.445 220.076 895.195C220.076 872.424 212.468 851.43 199.655 834.617Z" fill="url(#paint24_linear_2_284)"/>
<path fill-rule="evenodd" clip-rule="evenodd" d="M199.655 500.617C212.468 483.803 220.076 462.809 220.076 440.038C220.076 384.789 175.288 340 120.038 340C64.7886 340 20 384.789 20 440.038C20 462.809 27.608 483.803 40.4208 500.617C27.608 517.43 20 538.424 20 561.195C20 616.445 64.7886 661.233 120.038 661.233C175.288 661.233 220.076 616.445 220.076 561.195C220.076 538.424 212.468 517.43 199.655 500.617Z" fill="url(#paint25_linear_2_284)"/>
<path fill-rule="evenodd" clip-rule="evenodd" d="M199.655 166.617C212.468 149.803 220.076 128.809 220.076 106.038C220.076 50.7886 175.288 6 120.038 6C64.7886 6 20 50.7886 20 106.038C20 128.809 27.608 149.803 40.4208 166.617C27.608 183.43 20 204.424 20 227.195C20 282.445 64.7886 327.233 120.038 327.233C175.288 327.233 220.076 282.445 220.076 227.195C220.076 204.424 212.468 183.43 199.655 166.617Z" fill="url(#paint26_linear_2_284)"/>
<path fill-rule="evenodd" clip-rule="evenodd" d="M439.655 166.617C452.468 149.803 460.076 128.809 460.076 106.038C460.076 50.7886 415.288 6 360.038 6C304.789 6 260 50.7886 260 106.038C260 128.809 267.608 149.803 280.421 166.617C267.608 183.43 260 204.424 260 227.195C260 282.445 304.789 327.233 360.038 327.233C415.288 327.233 460.076 282.445 460.076 227.195C460.076 204.424 452.468 183.43 439.655 166.617Z" fill="url(#paint27_linear_2_284)"/>
<path fill-rule="evenodd" clip-rule="evenodd" d="M439.655 500.617C452.468 483.803 460.076 462.809 460.076 440.038C460.076 384.789 415.288 340 360.038 340C304.789 340 260 384.789 260 440.038C260 462.809 267.608 483.803 280.421 500.617C267.608 517.43 260 538.424 260 561.195C260 616.445 304.789 661.233 360.038 661.233C415.288 661.233 460.076 616.445 460.076 561.195C460.076 538.424 452.468 517.43 439.655 500.617Z" fill="url(#paint28_linear_2_284)"/>
<path fill-rule="evenodd" clip-rule="evenodd" d="M439.655 834.617C452.468 817.803 460.076 796.809 460.076 774.038C460.076 718.789 415.288 674 360.038 674C304.789 674 260 718.789 260 774.038C260 796.809 267.608 817.803 280.421 834.617C267.608 851.43 260 872.424 260 895.195C260 950.445 304.789 995.233 360.038 995.233C415.288 995.233 460.076 950.445 460.076 895.195C460.076 872.424 452.468 851.43 439.655 834.617Z" fill="url(#paint29_linear_2_284)"/>
<path fill-rule="evenodd" clip-rule="evenodd" d="M439.655 1168.62C452.468 1151.8 460.076 1130.81 460.076 1108.04C460.076 1052.79 415.288 1008 360.038 1008C304.789 1008 260 1052.79 260 1108.04C260 1130.81 267.608 1151.8 280.421 1168.62C267.608 1185.43 260 1206.42 260 1229.2C260 1284.44 304.789 1329.23 360.038 1329.23C415.288 1329.23 460.076 1284.44 460.076 1229.2C460.076 1206.42 452.468 1185.43 439.655 1168.62Z" fill="url(#paint30_linear_2_284)"/>
<path fill-rule="evenodd" clip-rule="evenodd" d="M199.655 1168.62C212.468 1151.8 220.076 1130.81 220.076 1108.04C220.076 1052.79 175.288 1008 120.038 1008C64.7886 1008 20 1052.79 20 1108.04C20 1130.81 27.608 1151.8 40.4208 1168.62C27.608 1185.43 20 1206.42 20 1229.2C20 1284.44 64.7886 1329.23 120.038 1329.23C175.288 1329.23 220.076 1284.44 220.076 1229.2C220.076 1206.42 212.468 1185.43 199.655 1168.62Z" fill="url(#paint31_linear_2_284)"/>
<defs>
<linearGradient id="paint0_linear_2_284" x1="1080.04" y1="127.157" x2="1080.04" y2="327.233" gradientUnits="userSpaceOnUse">
<stop stop-color="white" stop-opacity="0.4"/>
<stop offset="1" stop-color="white" stop-opacity="0"/>
</linearGradient>
<linearGradient id="paint1_linear_2_284" x1="1080.04" y1="461.157" x2="1080.04" y2="661.233" gradientUnits="userSpaceOnUse">
<stop stop-color="white" stop-opacity="0.4"/>
<stop offset="1" stop-color="white" stop-opacity="0"/>
</linearGradient>
<linearGradient id="paint2_linear_2_284" x1="1080.04" y1="795.157" x2="1080.04" y2="995.233" gradientUnits="userSpaceOnUse">
<stop stop-color="white" stop-opacity="0.4"/>
<stop offset="1" stop-color="white" stop-opacity="0"/>
</linearGradient>
<linearGradient id="paint3_linear_2_284" x1="1080.04" y1="1129.16" x2="1080.04" y2="1329.23" gradientUnits="userSpaceOnUse">
<stop stop-color="white" stop-opacity="0.4"/>
<stop offset="1" stop-color="white" stop-opacity="0"/>
</linearGradient>
<linearGradient id="paint4_linear_2_284" x1="1800.04" y1="127.157" x2="1800.04" y2="327.233" gradientUnits="userSpaceOnUse">
<stop stop-color="white" stop-opacity="0.4"/>
<stop offset="1" stop-color="white" stop-opacity="0"/>
</linearGradient>
<linearGradient id="paint5_linear_2_284" x1="1800.04" y1="461.157" x2="1800.04" y2="661.233" gradientUnits="userSpaceOnUse">
<stop stop-color="white" stop-opacity="0.4"/>
<stop offset="1" stop-color="white" stop-opacity="0"/>
</linearGradient>
<linearGradient id="paint6_linear_2_284" x1="1800.04" y1="795.157" x2="1800.04" y2="995.233" gradientUnits="userSpaceOnUse">
<stop stop-color="white" stop-opacity="0.4"/>
<stop offset="1" stop-color="white" stop-opacity="0"/>
</linearGradient>
<linearGradient id="paint7_linear_2_284" x1="1800.04" y1="1129.16" x2="1800.04" y2="1329.23" gradientUnits="userSpaceOnUse">
<stop stop-color="white" stop-opacity="0.4"/>
<stop offset="1" stop-color="white" stop-opacity="0"/>
</linearGradient>
<linearGradient id="paint8_linear_2_284" x1="1560.04" y1="127.157" x2="1560.04" y2="327.233" gradientUnits="userSpaceOnUse">
<stop stop-color="white" stop-opacity="0.4"/>
<stop offset="1" stop-color="white" stop-opacity="0"/>
</linearGradient>
<linearGradient id="paint9_linear_2_284" x1="1560.04" y1="461.157" x2="1560.04" y2="661.233" gradientUnits="userSpaceOnUse">
<stop stop-color="white" stop-opacity="0.4"/>
<stop offset="1" stop-color="white" stop-opacity="0"/>
</linearGradient>
<linearGradient id="paint10_linear_2_284" x1="1560.04" y1="795.157" x2="1560.04" y2="995.233" gradientUnits="userSpaceOnUse">
<stop stop-color="white" stop-opacity="0.4"/>
<stop offset="1" stop-color="white" stop-opacity="0"/>
</linearGradient>
<linearGradient id="paint11_linear_2_284" x1="1560.04" y1="1129.16" x2="1560.04" y2="1329.23" gradientUnits="userSpaceOnUse">
<stop stop-color="white" stop-opacity="0.4"/>
<stop offset="1" stop-color="white" stop-opacity="0"/>
</linearGradient>
<linearGradient id="paint12_linear_2_284" x1="1320.04" y1="127.157" x2="1320.04" y2="327.233" gradientUnits="userSpaceOnUse">
<stop stop-color="white" stop-opacity="0.4"/>
<stop offset="1" stop-color="white" stop-opacity="0"/>
</linearGradient>
<linearGradient id="paint13_linear_2_284" x1="1320.04" y1="461.157" x2="1320.04" y2="661.233" gradientUnits="userSpaceOnUse">
<stop stop-color="white" stop-opacity="0.4"/>
<stop offset="1" stop-color="white" stop-opacity="0"/>
</linearGradient>
<linearGradient id="paint14_linear_2_284" x1="1320.04" y1="795.157" x2="1320.04" y2="995.233" gradientUnits="userSpaceOnUse">
<stop stop-color="white" stop-opacity="0.4"/>
<stop offset="1" stop-color="white" stop-opacity="0"/>
</linearGradient>
<linearGradient id="paint15_linear_2_284" x1="1320.04" y1="1129.16" x2="1320.04" y2="1329.23" gradientUnits="userSpaceOnUse">
<stop stop-color="white" stop-opacity="0.4"/>
<stop offset="1" stop-color="white" stop-opacity="0"/>
</linearGradient>
<linearGradient id="paint16_linear_2_284" x1="840.038" y1="127.157" x2="840.038" y2="327.233" gradientUnits="userSpaceOnUse">
<stop stop-color="white" stop-opacity="0.4"/>
<stop offset="1" stop-color="white" stop-opacity="0"/>
</linearGradient>
<linearGradient id="paint17_linear_2_284" x1="840.038" y1="461.157" x2="840.038" y2="661.233" gradientUnits="userSpaceOnUse">
<stop stop-color="white" stop-opacity="0.4"/>
<stop offset="1" stop-color="white" stop-opacity="0"/>
</linearGradient>
<linearGradient id="paint18_linear_2_284" x1="840.038" y1="795.157" x2="840.038" y2="995.233" gradientUnits="userSpaceOnUse">
<stop stop-color="white" stop-opacity="0.4"/>
<stop offset="1" stop-color="white" stop-opacity="0"/>
</linearGradient>
<linearGradient id="paint19_linear_2_284" x1="840.038" y1="1129.16" x2="840.038" y2="1329.23" gradientUnits="userSpaceOnUse">
<stop stop-color="white" stop-opacity="0.4"/>
<stop offset="1" stop-color="white" stop-opacity="0"/>
</linearGradient>
<linearGradient id="paint20_linear_2_284" x1="600.038" y1="127.157" x2="600.038" y2="327.233" gradientUnits="userSpaceOnUse">
<stop stop-color="white" stop-opacity="0.4"/>
<stop offset="1" stop-color="white" stop-opacity="0"/>
</linearGradient>
<linearGradient id="paint21_linear_2_284" x1="600.038" y1="461.157" x2="600.038" y2="661.233" gradientUnits="userSpaceOnUse">
<stop stop-color="white" stop-opacity="0.4"/>
<stop offset="1" stop-color="white" stop-opacity="0"/>
</linearGradient>
<linearGradient id="paint22_linear_2_284" x1="600.038" y1="795.157" x2="600.038" y2="995.233" gradientUnits="userSpaceOnUse">
<stop stop-color="white" stop-opacity="0.4"/>
<stop offset="1" stop-color="white" stop-opacity="0"/>
</linearGradient>
<linearGradient id="paint23_linear_2_284" x1="600.038" y1="1129.16" x2="600.038" y2="1329.23" gradientUnits="userSpaceOnUse">
<stop stop-color="white" stop-opacity="0.4"/>
<stop offset="1" stop-color="white" stop-opacity="0"/>
</linearGradient>
<linearGradient id="paint24_linear_2_284" x1="120.038" y1="795.157" x2="120.038" y2="995.233" gradientUnits="userSpaceOnUse">
<stop stop-color="white" stop-opacity="0.4"/>
<stop offset="1" stop-color="white" stop-opacity="0"/>
</linearGradient>
<linearGradient id="paint25_linear_2_284" x1="120.038" y1="461.157" x2="120.038" y2="661.233" gradientUnits="userSpaceOnUse">
<stop stop-color="white" stop-opacity="0.4"/>
<stop offset="1" stop-color="white" stop-opacity="0"/>
</linearGradient>
<linearGradient id="paint26_linear_2_284" x1="120.038" y1="127.157" x2="120.038" y2="327.233" gradientUnits="userSpaceOnUse">
<stop stop-color="white" stop-opacity="0.4"/>
<stop offset="1" stop-color="white" stop-opacity="0"/>
</linearGradient>
<linearGradient id="paint27_linear_2_284" x1="360.038" y1="127.157" x2="360.038" y2="327.233" gradientUnits="userSpaceOnUse">
<stop stop-color="white" stop-opacity="0.4"/>
<stop offset="1" stop-color="white" stop-opacity="0"/>
</linearGradient>
<linearGradient id="paint28_linear_2_284" x1="360.038" y1="461.157" x2="360.038" y2="661.233" gradientUnits="userSpaceOnUse">
<stop stop-color="white" stop-opacity="0.4"/>
<stop offset="1" stop-color="white" stop-opacity="0"/>
</linearGradient>
<linearGradient id="paint29_linear_2_284" x1="360.038" y1="795.157" x2="360.038" y2="995.233" gradientUnits="userSpaceOnUse">
<stop stop-color="white" stop-opacity="0.4"/>
<stop offset="1" stop-color="white" stop-opacity="0"/>
</linearGradient>
<linearGradient id="paint30_linear_2_284" x1="360.038" y1="1129.16" x2="360.038" y2="1329.23" gradientUnits="userSpaceOnUse">
<stop stop-color="white" stop-opacity="0.4"/>
<stop offset="1" stop-color="white" stop-opacity="0"/>
</linearGradient>
<linearGradient id="paint31_linear_2_284" x1="120.038" y1="1129.16" x2="120.038" y2="1329.23" gradientUnits="userSpaceOnUse">
<stop stop-color="white" stop-opacity="0.4"/>
<stop offset="1" stop-color="white" stop-opacity="0"/>
</linearGradient>
</defs>
</svg>
