<svg width="2125" height="866" viewBox="0 0 2125 866" fill="none" xmlns="http://www.w3.org/2000/svg">
<g clip-path="url(#clip0_3_482)">
<path d="M0 24C0 10.7452 10.7452 0 24 0H2101C2114.25 0 2125 10.7452 2125 24V1170H0V24Z" fill="#F6F5F9"/>
<path d="M254 165C254 158.373 259.373 153 266 153H1810C1816.63 153 1822 158.373 1822 165V854C1822 860.627 1816.63 866 1810 866H266C259.373 866 254 860.627 254 854V165Z" fill="white"/>
<path d="M918 365.974C918 358.257 924.257 352 931.974 352H1665.61C1673.33 352 1679.58 358.257 1679.58 365.974V865.544H918V365.974Z" fill="#F2EBFF"/>
<path d="M1228.92 404.403H1187C1179.28 404.403 1173.03 410.659 1173.03 418.377V474.273C1173.03 481.99 1179.28 488.247 1187 488.247H1228.92C1236.64 488.247 1242.9 481.99 1242.9 474.273V418.377C1242.9 410.659 1236.64 404.403 1228.92 404.403Z" fill="#E8DCFF"/>
<path d="M1410.58 404.403H1368.66C1360.94 404.403 1354.69 410.659 1354.69 418.377V474.273C1354.69 481.99 1360.94 488.247 1368.66 488.247H1410.58C1418.3 488.247 1424.56 481.99 1424.56 474.273V418.377C1424.56 410.659 1418.3 404.403 1410.58 404.403Z" fill="#E8DCFF"/>
<path d="M1320.79 404.076H1278.87C1271.15 404.076 1264.9 410.332 1264.9 418.05V473.946C1264.9 481.663 1271.15 487.92 1278.87 487.92H1320.79C1328.51 487.92 1334.77 481.663 1334.77 473.946V418.05C1334.77 410.332 1328.51 404.076 1320.79 404.076Z" fill="#E8DCFF"/>
<path d="M1320.79 509.448H1278.87C1271.15 509.448 1264.9 515.705 1264.9 523.422V579.318C1264.9 587.036 1271.15 593.292 1278.87 593.292H1320.79C1328.51 593.292 1334.77 587.036 1334.77 579.318V523.422C1334.77 515.705 1328.51 509.448 1320.79 509.448Z" fill="#E8DCFF"/>
<path d="M1318.98 618.454H1277.05C1269.34 618.454 1263.08 624.71 1263.08 632.428V688.324C1263.08 696.041 1269.34 702.298 1277.05 702.298H1318.98C1326.69 702.298 1332.95 696.041 1332.95 688.324V632.428C1332.95 624.71 1326.69 618.454 1318.98 618.454Z" fill="#E8DCFF"/>
<path d="M1318.98 727.459H1277.05C1269.34 727.459 1263.08 733.716 1263.08 741.433V797.329C1263.08 805.047 1269.34 811.303 1277.05 811.303H1318.98C1326.69 811.303 1332.95 805.047 1332.95 797.329V741.433C1332.95 733.716 1326.69 727.459 1318.98 727.459Z" fill="#E8DCFF"/>
<path d="M1501.41 404.403H1459.49C1451.77 404.403 1445.52 410.659 1445.52 418.377V474.273C1445.52 481.99 1451.77 488.247 1459.49 488.247H1501.41C1509.13 488.247 1515.39 481.99 1515.39 474.273V418.377C1515.39 410.659 1509.13 404.403 1501.41 404.403Z" fill="#B696F9"/>
<path d="M1592.24 404.403H1550.32C1542.61 404.403 1536.35 410.659 1536.35 418.377V474.273C1536.35 481.99 1542.61 488.247 1550.32 488.247H1592.24C1599.96 488.247 1606.22 481.99 1606.22 474.273V418.377C1606.22 410.659 1599.96 404.403 1592.24 404.403Z" fill="#B696F9"/>
<path d="M1046.46 509.448H1004.54C996.823 509.448 990.566 515.705 990.566 523.422V579.318C990.566 587.036 996.823 593.292 1004.54 593.292H1046.46C1054.18 593.292 1060.44 587.036 1060.44 579.318V523.422C1060.44 515.705 1054.18 509.448 1046.46 509.448Z" fill="#E8DCFF"/>
<path d="M1139.12 509.448H1097.2C1089.48 509.448 1083.22 515.705 1083.22 523.422V579.318C1083.22 587.036 1089.48 593.292 1097.2 593.292H1139.12C1146.83 593.292 1153.09 587.036 1153.09 579.318V523.422C1153.09 515.705 1146.83 509.448 1139.12 509.448Z" fill="#E8DCFF"/>
<path d="M1229.96 509.448H1188.03C1180.32 509.448 1174.06 515.705 1174.06 523.422V579.318C1174.06 587.036 1180.32 593.292 1188.03 593.292H1229.96C1237.67 593.292 1243.93 587.036 1243.93 579.318V523.422C1243.93 515.705 1237.67 509.448 1229.96 509.448Z" fill="#E8DCFF"/>
<path d="M1411.63 509.448H1369.71C1361.99 509.448 1355.74 515.705 1355.74 523.422V579.318C1355.74 587.036 1361.99 593.292 1369.71 593.292H1411.63C1419.35 593.292 1425.61 587.036 1425.61 579.318V523.422C1425.61 515.705 1419.35 509.448 1411.63 509.448Z" fill="#E8DCFF"/>
<path d="M1502.47 509.448H1460.55C1452.83 509.448 1446.57 515.705 1446.57 523.422V579.318C1446.57 587.036 1452.83 593.292 1460.55 593.292H1502.47C1510.19 593.292 1516.44 587.036 1516.44 579.318V523.422C1516.44 515.705 1510.19 509.448 1502.47 509.448Z" fill="#E8DCFF"/>
<path d="M1593.31 509.448H1551.39C1543.67 509.448 1537.41 515.705 1537.41 523.422V579.318C1537.41 587.036 1543.67 593.292 1551.39 593.292H1593.31C1601.03 593.292 1607.28 587.036 1607.28 579.318V523.422C1607.28 515.705 1601.03 509.448 1593.31 509.448Z" fill="#E8DCFF"/>
<path d="M1046.46 618.454H1004.54C996.823 618.454 990.566 624.71 990.566 632.428V688.324C990.566 696.041 996.823 702.298 1004.54 702.298H1046.46C1054.18 702.298 1060.44 696.041 1060.44 688.324V632.428C1060.44 624.71 1054.18 618.454 1046.46 618.454Z" fill="#E8DCFF"/>
<path d="M1137.3 618.454H1095.38C1087.66 618.454 1081.4 624.71 1081.4 632.428V688.324C1081.4 696.041 1087.66 702.298 1095.38 702.298H1137.3C1145.02 702.298 1151.27 696.041 1151.27 688.324V632.428C1151.27 624.71 1145.02 618.454 1137.3 618.454Z" fill="#E8DCFF"/>
<path d="M1228.14 618.454H1186.22C1178.5 618.454 1172.24 624.71 1172.24 632.428V688.324C1172.24 696.041 1178.5 702.298 1186.22 702.298H1228.14C1235.86 702.298 1242.11 696.041 1242.11 688.324V632.428C1242.11 624.71 1235.86 618.454 1228.14 618.454Z" fill="#E8DCFF"/>
<path d="M1409.81 618.454H1367.89C1360.18 618.454 1353.92 624.71 1353.92 632.428V688.324C1353.92 696.041 1360.18 702.298 1367.89 702.298H1409.81C1417.53 702.298 1423.79 696.041 1423.79 688.324V632.428C1423.79 624.71 1417.53 618.454 1409.81 618.454Z" fill="#E8DCFF"/>
<path d="M1500.65 618.454H1458.73C1451.01 618.454 1444.76 624.71 1444.76 632.428V688.324C1444.76 696.041 1451.01 702.298 1458.73 702.298H1500.65C1508.37 702.298 1514.63 696.041 1514.63 688.324V632.428C1514.63 624.71 1508.37 618.454 1500.65 618.454Z" fill="#E8DCFF"/>
<path d="M1591.49 618.454H1549.57C1541.85 618.454 1535.59 624.71 1535.59 632.428V688.324C1535.59 696.041 1541.85 702.298 1549.57 702.298H1591.49C1599.21 702.298 1605.46 696.041 1605.46 688.324V632.428C1605.46 624.71 1599.21 618.454 1591.49 618.454Z" fill="#E8DCFF"/>
<path d="M1046.46 727.459H1004.54C996.823 727.459 990.566 733.716 990.566 741.433V797.329C990.566 805.047 996.823 811.303 1004.54 811.303H1046.46C1054.18 811.303 1060.44 805.047 1060.44 797.329V741.433C1060.44 733.716 1054.18 727.459 1046.46 727.459Z" fill="#E8DCFF"/>
<path d="M1137.3 727.459H1095.38C1087.66 727.459 1081.4 733.716 1081.4 741.433V797.329C1081.4 805.047 1087.66 811.303 1095.38 811.303H1137.3C1145.02 811.303 1151.27 805.047 1151.27 797.329V741.433C1151.27 733.716 1145.02 727.459 1137.3 727.459Z" fill="#E8DCFF"/>
<path d="M1228.14 727.459H1186.22C1178.5 727.459 1172.24 733.716 1172.24 741.433V797.329C1172.24 805.047 1178.5 811.303 1186.22 811.303H1228.14C1235.86 811.303 1242.11 805.047 1242.11 797.329V741.433C1242.11 733.716 1235.86 727.459 1228.14 727.459Z" fill="#E8DCFF"/>
<path d="M1409.81 727.459H1367.89C1360.18 727.459 1353.92 733.716 1353.92 741.433V797.329C1353.92 805.047 1360.18 811.303 1367.89 811.303H1409.81C1417.53 811.303 1423.79 805.047 1423.79 797.329V741.433C1423.79 733.716 1417.53 727.459 1409.81 727.459Z" fill="#E8DCFF"/>
<path d="M1500.65 727.459H1458.73C1451.01 727.459 1444.76 733.716 1444.76 741.433V797.329C1444.76 805.047 1451.01 811.303 1458.73 811.303H1500.65C1508.37 811.303 1514.63 805.047 1514.63 797.329V741.433C1514.63 733.716 1508.37 727.459 1500.65 727.459Z" fill="#E8DCFF"/>
<path fill-rule="evenodd" clip-rule="evenodd" d="M344 484.2C349.092 484.2 353.976 482.177 357.576 478.576C361.177 474.976 363.2 470.092 363.2 465C363.2 459.908 361.177 455.024 357.576 451.423C353.976 447.823 349.092 445.8 344 445.8C338.908 445.8 334.024 447.823 330.424 451.423C326.823 455.024 324.8 459.908 324.8 465C324.8 470.092 326.823 474.976 330.424 478.576C334.024 482.177 338.908 484.2 344 484.2V484.2ZM346.4 455.4C346.4 454.763 346.147 454.153 345.697 453.703C345.247 453.253 344.637 453 344 453C343.364 453 342.753 453.253 342.303 453.703C341.853 454.153 341.6 454.763 341.6 455.4V465C341.6 465.636 341.853 466.247 342.303 466.697L349.09 473.486C349.313 473.709 349.578 473.886 349.869 474.007C350.161 474.127 350.473 474.19 350.788 474.19C351.104 474.19 351.416 474.127 351.707 474.007C351.999 473.886 352.263 473.709 352.486 473.486C352.709 473.263 352.886 472.999 353.007 472.707C353.128 472.416 353.19 472.104 353.19 471.788C353.19 471.473 353.128 471.161 353.007 470.869C352.886 470.578 352.709 470.313 352.486 470.09L346.4 464.006V455.4Z" fill="#4FB159"/>
<path d="M395.723 478.358C393.882 478.358 392.246 478.043 390.814 477.412C389.391 476.781 388.266 475.903 387.439 474.778C386.612 473.653 386.173 472.354 386.122 470.879H390.929C390.972 471.587 391.206 472.204 391.632 472.733C392.058 473.253 392.625 473.658 393.332 473.947C394.04 474.237 394.832 474.382 395.71 474.382C396.648 474.382 397.479 474.22 398.203 473.896C398.928 473.564 399.494 473.104 399.903 472.516C400.313 471.927 400.513 471.25 400.504 470.483C400.513 469.69 400.308 468.991 399.891 468.386C399.473 467.781 398.868 467.308 398.075 466.967C397.291 466.626 396.345 466.456 395.237 466.456H392.923V462.8H395.237C396.149 462.8 396.946 462.642 397.628 462.327C398.318 462.011 398.859 461.568 399.251 460.997C399.643 460.418 399.835 459.749 399.827 458.99C399.835 458.249 399.669 457.605 399.328 457.06C398.996 456.506 398.523 456.075 397.909 455.768C397.304 455.462 396.592 455.308 395.774 455.308C394.973 455.308 394.232 455.453 393.55 455.743C392.868 456.033 392.318 456.446 391.901 456.983C391.483 457.511 391.261 458.142 391.236 458.875H386.672C386.706 457.409 387.128 456.122 387.938 455.014C388.756 453.898 389.847 453.028 391.21 452.406C392.574 451.776 394.104 451.46 395.8 451.46C397.547 451.46 399.064 451.788 400.351 452.445C401.646 453.092 402.648 453.966 403.355 455.065C404.063 456.165 404.416 457.379 404.416 458.709C404.425 460.183 403.99 461.419 403.112 462.416C402.243 463.413 401.101 464.065 399.686 464.372V464.577C401.527 464.832 402.938 465.514 403.918 466.622C404.906 467.722 405.396 469.089 405.388 470.726C405.388 472.192 404.97 473.504 404.135 474.663C403.308 475.814 402.166 476.717 400.709 477.374C399.26 478.03 397.598 478.358 395.723 478.358Z" fill="#4FB159"/>
<path d="M419.454 478.499C417.348 478.499 415.542 477.966 414.033 476.901C412.533 475.827 411.378 474.28 410.569 472.26C409.767 470.231 409.367 467.79 409.367 464.935C409.375 462.079 409.78 459.651 410.581 457.648C411.391 455.636 412.546 454.102 414.046 453.045C415.554 451.989 417.357 451.46 419.454 451.46C421.55 451.46 423.353 451.989 424.861 453.045C426.37 454.102 427.525 455.636 428.326 457.648C429.135 459.659 429.54 462.088 429.54 464.935C429.54 467.798 429.135 470.244 428.326 472.273C427.525 474.293 426.37 475.835 424.861 476.901C423.361 477.966 421.559 478.499 419.454 478.499ZM419.454 474.497C421.09 474.497 422.381 473.692 423.327 472.081C424.282 470.462 424.759 468.079 424.759 464.935C424.759 462.855 424.542 461.108 424.107 459.693C423.672 458.278 423.059 457.213 422.266 456.497C421.473 455.773 420.536 455.41 419.454 455.41C417.826 455.41 416.539 456.22 415.593 457.839C414.647 459.45 414.169 461.815 414.161 464.935C414.152 467.023 414.361 468.778 414.787 470.202C415.222 471.625 415.836 472.699 416.628 473.423C417.421 474.139 418.363 474.497 419.454 474.497Z" fill="#4FB159"/>
<path d="M442.769 478V458.364H447.192V461.7H447.422C447.831 460.575 448.509 459.697 449.455 459.067C450.401 458.427 451.53 458.108 452.842 458.108C454.172 458.108 455.293 458.432 456.205 459.079C457.125 459.719 457.773 460.592 458.148 461.7H458.352C458.787 460.609 459.52 459.74 460.551 459.092C461.591 458.436 462.822 458.108 464.246 458.108C466.053 458.108 467.527 458.679 468.669 459.821C469.811 460.963 470.382 462.629 470.382 464.82V478H465.742V465.535C465.742 464.317 465.418 463.426 464.77 462.864C464.122 462.293 463.33 462.007 462.392 462.007C461.276 462.007 460.402 462.356 459.771 463.055C459.149 463.746 458.838 464.645 458.838 465.753V478H454.3V465.344C454.3 464.329 453.993 463.52 453.379 462.915C452.774 462.31 451.982 462.007 451.001 462.007C450.337 462.007 449.732 462.177 449.186 462.518C448.641 462.851 448.206 463.324 447.882 463.937C447.558 464.543 447.396 465.25 447.396 466.06V478H442.769Z" fill="#4FB159"/>
<path d="M475.077 478V458.364H479.705V478H475.077ZM477.404 455.577C476.671 455.577 476.04 455.334 475.512 454.848C474.983 454.354 474.719 453.761 474.719 453.071C474.719 452.372 474.983 451.78 475.512 451.294C476.04 450.8 476.671 450.552 477.404 450.552C478.145 450.552 478.776 450.8 479.296 451.294C479.824 451.78 480.088 452.372 480.088 453.071C480.088 453.761 479.824 454.354 479.296 454.848C478.776 455.334 478.145 455.577 477.404 455.577Z" fill="#4FB159"/>
<path d="M489.092 466.494V478H484.464V458.364H488.887V461.7H489.117C489.569 460.601 490.289 459.727 491.278 459.079C492.275 458.432 493.506 458.108 494.972 458.108C496.327 458.108 497.508 458.398 498.514 458.977C499.528 459.557 500.312 460.396 500.866 461.496C501.428 462.595 501.705 463.929 501.697 465.497V478H497.069V466.213C497.069 464.901 496.728 463.874 496.046 463.132C495.373 462.391 494.44 462.02 493.246 462.02C492.437 462.02 491.717 462.199 491.086 462.557C490.464 462.906 489.974 463.413 489.616 464.078C489.266 464.743 489.092 465.548 489.092 466.494Z" fill="#4FB159"/>
<path d="M518.917 469.741V458.364H523.545V478H519.058V474.51H518.853C518.41 475.609 517.681 476.508 516.667 477.207C515.661 477.906 514.421 478.256 512.947 478.256C511.66 478.256 510.522 477.97 509.533 477.399C508.553 476.82 507.786 475.98 507.232 474.881C506.678 473.773 506.401 472.435 506.401 470.866V458.364H511.029V470.151C511.029 471.395 511.37 472.383 512.052 473.116C512.734 473.849 513.629 474.216 514.737 474.216C515.418 474.216 516.079 474.05 516.718 473.717C517.357 473.385 517.881 472.891 518.291 472.234C518.708 471.57 518.917 470.739 518.917 469.741Z" fill="#4FB159"/>
<path d="M538.109 458.364V461.943H526.821V458.364H538.109ZM529.608 453.659H534.235V472.094C534.235 472.716 534.329 473.193 534.517 473.526C534.713 473.849 534.968 474.071 535.284 474.19C535.599 474.31 535.949 474.369 536.332 474.369C536.622 474.369 536.886 474.348 537.125 474.305C537.372 474.263 537.559 474.224 537.687 474.19L538.467 477.808C538.22 477.893 537.866 477.987 537.406 478.089C536.954 478.192 536.4 478.251 535.744 478.268C534.585 478.302 533.541 478.128 532.612 477.744C531.683 477.352 530.946 476.747 530.4 475.929C529.863 475.111 529.599 474.088 529.608 472.861V453.659Z" fill="#4FB159"/>
<path d="M550.462 478.383C548.493 478.383 546.793 477.974 545.361 477.156C543.938 476.329 542.842 475.162 542.075 473.653C541.308 472.136 540.925 470.351 540.925 468.297C540.925 466.277 541.308 464.504 542.075 462.979C542.851 461.445 543.933 460.251 545.322 459.399C546.712 458.538 548.344 458.108 550.219 458.108C551.429 458.108 552.571 458.304 553.645 458.696C554.727 459.079 555.682 459.676 556.509 460.486C557.344 461.295 558 462.327 558.477 463.579C558.955 464.824 559.193 466.307 559.193 468.028V469.447H543.098V466.328H554.757C554.749 465.442 554.557 464.653 554.182 463.963C553.807 463.264 553.283 462.714 552.609 462.314C551.945 461.913 551.169 461.713 550.283 461.713C549.337 461.713 548.506 461.943 547.79 462.403C547.074 462.855 546.516 463.452 546.115 464.193C545.723 464.926 545.523 465.731 545.514 466.609V469.332C545.514 470.474 545.723 471.454 546.141 472.273C546.558 473.082 547.142 473.704 547.892 474.139C548.642 474.565 549.52 474.778 550.526 474.778C551.199 474.778 551.808 474.685 552.354 474.497C552.899 474.301 553.372 474.016 553.773 473.641C554.173 473.266 554.476 472.801 554.68 472.247L559.001 472.733C558.729 473.875 558.209 474.872 557.442 475.724C556.683 476.568 555.712 477.224 554.527 477.693C553.342 478.153 551.987 478.383 550.462 478.383Z" fill="#4FB159"/>
<path d="M578.628 463.554L574.409 464.014C574.29 463.588 574.081 463.187 573.783 462.812C573.493 462.437 573.101 462.135 572.607 461.905C572.113 461.675 571.507 461.56 570.792 461.56C569.829 461.56 569.019 461.768 568.363 462.186C567.715 462.604 567.395 463.145 567.404 463.81C567.395 464.381 567.604 464.845 568.03 465.203C568.465 465.561 569.181 465.855 570.178 466.085L573.527 466.801C575.385 467.202 576.766 467.837 577.669 468.706C578.581 469.575 579.042 470.713 579.05 472.119C579.042 473.355 578.679 474.446 577.963 475.392C577.256 476.329 576.272 477.062 575.01 477.591C573.749 478.119 572.3 478.383 570.664 478.383C568.26 478.383 566.326 477.881 564.86 476.875C563.394 475.861 562.52 474.45 562.239 472.643L566.752 472.209C566.956 473.095 567.391 473.764 568.056 474.216C568.721 474.668 569.586 474.893 570.651 474.893C571.75 474.893 572.632 474.668 573.297 474.216C573.971 473.764 574.307 473.206 574.307 472.541C574.307 471.979 574.09 471.514 573.655 471.148C573.229 470.781 572.564 470.5 571.661 470.304L568.311 469.601C566.428 469.209 565.034 468.548 564.131 467.619C563.228 466.682 562.78 465.497 562.789 464.065C562.78 462.855 563.108 461.807 563.773 460.92C564.446 460.026 565.38 459.335 566.573 458.849C567.775 458.355 569.159 458.108 570.728 458.108C573.029 458.108 574.84 458.598 576.161 459.578C577.49 460.558 578.313 461.883 578.628 463.554Z" fill="#4FB159"/>
<path d="M395.723 553.358C393.882 553.358 392.246 553.043 390.814 552.412C389.391 551.781 388.266 550.903 387.439 549.778C386.612 548.653 386.173 547.354 386.122 545.879H390.929C390.972 546.587 391.206 547.205 391.632 547.733C392.058 548.253 392.625 548.658 393.332 548.947C394.04 549.237 394.832 549.382 395.71 549.382C396.648 549.382 397.479 549.22 398.203 548.896C398.928 548.564 399.494 548.104 399.903 547.516C400.313 546.928 400.513 546.25 400.504 545.483C400.513 544.69 400.308 543.992 399.891 543.386C399.473 542.781 398.868 542.308 398.075 541.967C397.291 541.626 396.345 541.456 395.237 541.456H392.923V537.8H395.237C396.149 537.8 396.946 537.642 397.628 537.327C398.318 537.011 398.859 536.568 399.251 535.997C399.643 535.418 399.835 534.749 399.827 533.99C399.835 533.249 399.669 532.605 399.328 532.06C398.996 531.506 398.523 531.075 397.909 530.768C397.304 530.462 396.592 530.308 395.774 530.308C394.973 530.308 394.232 530.453 393.55 530.743C392.868 531.033 392.318 531.446 391.901 531.983C391.483 532.511 391.261 533.142 391.236 533.875H386.672C386.706 532.409 387.128 531.122 387.938 530.014C388.756 528.898 389.847 528.028 391.21 527.406C392.574 526.776 394.104 526.46 395.8 526.46C397.547 526.46 399.064 526.788 400.351 527.445C401.646 528.092 402.648 528.966 403.355 530.065C404.063 531.165 404.416 532.379 404.416 533.709C404.425 535.183 403.99 536.419 403.112 537.416C402.243 538.413 401.101 539.065 399.686 539.372V539.577C401.527 539.832 402.938 540.514 403.918 541.622C404.906 542.722 405.396 544.09 405.388 545.726C405.388 547.192 404.97 548.504 404.135 549.663C403.308 550.814 402.166 551.717 400.709 552.374C399.26 553.03 397.598 553.358 395.723 553.358Z" fill="#DDB62D"/>
<path d="M418.865 526.46C420.118 526.469 421.337 526.69 422.522 527.125C423.715 527.551 424.789 528.25 425.743 529.222C426.698 530.185 427.456 531.476 428.019 533.095C428.581 534.715 428.863 536.717 428.863 539.104C428.871 541.354 428.632 543.365 428.147 545.138C427.669 546.902 426.983 548.393 426.088 549.612C425.194 550.831 424.115 551.76 422.854 552.399C421.593 553.038 420.174 553.358 418.597 553.358C416.944 553.358 415.478 553.034 414.199 552.386C412.929 551.739 411.902 550.852 411.118 549.727C410.334 548.602 409.853 547.315 409.674 545.867H414.34C414.579 546.906 415.064 547.733 415.797 548.347C416.539 548.952 417.472 549.254 418.597 549.254C420.412 549.254 421.81 548.466 422.79 546.889C423.77 545.313 424.26 543.122 424.26 540.318H424.081C423.664 541.068 423.123 541.716 422.458 542.261C421.793 542.798 421.039 543.212 420.195 543.501C419.36 543.791 418.473 543.936 417.536 543.936C416.002 543.936 414.621 543.57 413.394 542.837C412.175 542.104 411.208 541.098 410.492 539.82C409.784 538.541 409.427 537.08 409.418 535.435C409.418 533.73 409.81 532.2 410.594 530.845C411.387 529.482 412.49 528.408 413.905 527.624C415.32 526.831 416.973 526.443 418.865 526.46ZM418.878 530.295C417.958 530.295 417.127 530.521 416.385 530.973C415.652 531.416 415.073 532.021 414.647 532.788C414.229 533.547 414.02 534.395 414.02 535.332C414.029 536.261 414.238 537.105 414.647 537.864C415.064 538.622 415.631 539.223 416.347 539.666C417.071 540.109 417.898 540.331 418.827 540.331C419.517 540.331 420.161 540.199 420.757 539.935C421.354 539.67 421.874 539.304 422.317 538.835C422.769 538.358 423.118 537.817 423.365 537.212C423.621 536.607 423.745 535.967 423.736 535.294C423.736 534.399 423.523 533.572 423.097 532.814C422.679 532.055 422.104 531.446 421.371 530.986C420.647 530.526 419.816 530.295 418.878 530.295Z" fill="#DDB62D"/>
<path d="M458.809 526.818H463.552V543.923C463.552 545.798 463.109 547.447 462.223 548.871C461.345 550.294 460.109 551.406 458.515 552.207C456.922 553 455.059 553.396 452.929 553.396C450.789 553.396 448.923 553 447.329 552.207C445.735 551.406 444.5 550.294 443.622 548.871C442.744 547.447 442.305 545.798 442.305 543.923V526.818H447.048V543.527C447.048 544.618 447.287 545.59 447.764 546.442C448.25 547.294 448.931 547.963 449.809 548.449C450.687 548.926 451.727 549.165 452.929 549.165C454.13 549.165 455.17 548.926 456.048 548.449C456.934 547.963 457.616 547.294 458.093 546.442C458.571 545.59 458.809 544.618 458.809 543.527V526.818Z" fill="#DDB62D"/>
<path d="M482.936 534.016C482.817 532.899 482.314 532.03 481.428 531.408C480.55 530.786 479.408 530.474 478.001 530.474C477.013 530.474 476.165 530.624 475.457 530.922C474.75 531.22 474.209 531.625 473.834 532.136C473.459 532.648 473.267 533.232 473.259 533.888C473.259 534.433 473.382 534.906 473.629 535.307C473.885 535.707 474.23 536.048 474.665 536.33C475.099 536.602 475.581 536.832 476.109 537.02C476.638 537.207 477.17 537.365 477.707 537.493L480.162 538.107C481.151 538.337 482.101 538.648 483.013 539.04C483.933 539.432 484.756 539.926 485.48 540.523C486.213 541.119 486.793 541.84 487.219 542.683C487.645 543.527 487.858 544.516 487.858 545.649C487.858 547.183 487.466 548.534 486.682 549.702C485.898 550.861 484.764 551.768 483.281 552.425C481.807 553.072 480.021 553.396 477.925 553.396C475.888 553.396 474.119 553.081 472.619 552.45C471.128 551.82 469.96 550.899 469.117 549.689C468.281 548.479 467.83 547.004 467.761 545.266H472.428C472.496 546.178 472.777 546.936 473.271 547.541C473.766 548.146 474.409 548.598 475.202 548.896C476.003 549.195 476.898 549.344 477.886 549.344C478.918 549.344 479.821 549.19 480.597 548.884C481.381 548.568 481.994 548.134 482.438 547.58C482.881 547.017 483.107 546.361 483.115 545.611C483.107 544.929 482.906 544.367 482.514 543.923C482.122 543.472 481.572 543.097 480.865 542.798C480.166 542.492 479.348 542.219 478.411 541.98L475.432 541.213C473.276 540.659 471.571 539.82 470.318 538.695C469.074 537.561 468.452 536.057 468.452 534.182C468.452 532.639 468.869 531.288 469.705 530.129C470.548 528.97 471.695 528.071 473.143 527.432C474.592 526.784 476.233 526.46 478.065 526.46C479.923 526.46 481.551 526.784 482.949 527.432C484.355 528.071 485.459 528.962 486.26 530.104C487.061 531.237 487.474 532.541 487.5 534.016H482.936Z" fill="#DDB62D"/>
<path d="M500.958 553H492.086V526.818H501.137C503.737 526.818 505.97 527.342 507.836 528.391C509.711 529.43 511.152 530.926 512.157 532.878C513.163 534.83 513.666 537.165 513.666 539.884C513.666 542.611 513.159 544.955 512.145 546.915C511.139 548.875 509.686 550.379 507.785 551.428C505.893 552.476 503.618 553 500.958 553ZM496.829 548.896H500.728C502.552 548.896 504.074 548.564 505.292 547.899C506.511 547.226 507.427 546.224 508.041 544.895C508.655 543.557 508.961 541.886 508.961 539.884C508.961 537.881 508.655 536.219 508.041 534.898C507.427 533.568 506.52 532.575 505.318 531.919C504.125 531.254 502.642 530.922 500.869 530.922H496.829V548.896Z" fill="#DDB62D"/>
<path d="M540.583 535.652H535.802C535.665 534.868 535.414 534.173 535.047 533.568C534.681 532.955 534.225 532.435 533.679 532.009C533.134 531.582 532.512 531.263 531.813 531.05C531.123 530.828 530.377 530.717 529.576 530.717C528.152 530.717 526.891 531.075 525.792 531.791C524.692 532.499 523.831 533.538 523.209 534.911C522.587 536.274 522.276 537.94 522.276 539.909C522.276 541.912 522.587 543.599 523.209 544.972C523.84 546.335 524.701 547.367 525.792 548.065C526.891 548.756 528.148 549.101 529.563 549.101C530.347 549.101 531.08 548.999 531.762 548.794C532.452 548.581 533.07 548.27 533.615 547.861C534.169 547.452 534.634 546.949 535.009 546.352C535.392 545.756 535.657 545.074 535.802 544.307L540.583 544.332C540.404 545.577 540.016 546.744 539.419 547.835C538.831 548.926 538.06 549.889 537.105 550.724C536.151 551.551 535.034 552.199 533.756 552.668C532.478 553.128 531.059 553.358 529.499 553.358C527.198 553.358 525.144 552.825 523.337 551.76C521.53 550.695 520.107 549.156 519.067 547.145C518.027 545.134 517.507 542.722 517.507 539.909C517.507 537.088 518.032 534.676 519.08 532.673C520.128 530.662 521.556 529.124 523.363 528.058C525.169 526.993 527.215 526.46 529.499 526.46C530.956 526.46 532.311 526.665 533.564 527.074C534.817 527.483 535.934 528.084 536.914 528.876C537.894 529.661 538.699 530.624 539.33 531.766C539.969 532.899 540.387 534.195 540.583 535.652Z" fill="#DDB62D"/>
<path d="M940.73 239.182H949.114L960.341 266.585H960.784L972.011 239.182H980.395V277H973.821V251.019H973.47L963.018 276.889H958.107L947.655 250.963H947.304V277H940.73V239.182Z" fill="black"/>
<path d="M995.722 277.573C993.924 277.573 992.305 277.252 990.865 276.612C989.437 275.96 988.304 275 987.467 273.732C986.643 272.464 986.23 270.9 986.23 269.041C986.23 267.441 986.526 266.117 987.116 265.071C987.707 264.025 988.514 263.188 989.535 262.56C990.557 261.932 991.708 261.458 992.989 261.138C994.281 260.805 995.617 260.565 996.996 260.418C998.658 260.245 1000.01 260.091 1001.04 259.956C1002.07 259.808 1002.82 259.587 1003.29 259.291C1003.77 258.983 1004.01 258.51 1004.01 257.869V257.759C1004.01 256.367 1003.6 255.29 1002.78 254.527C1001.95 253.764 1000.76 253.382 999.212 253.382C997.574 253.382 996.276 253.739 995.315 254.453C994.367 255.167 993.727 256.01 993.395 256.983L987.153 256.097C987.646 254.373 988.458 252.933 989.591 251.776C990.723 250.606 992.108 249.732 993.746 249.153C995.383 248.563 997.193 248.267 999.175 248.267C1000.54 248.267 1001.9 248.427 1003.26 248.747C1004.61 249.067 1005.85 249.597 1006.97 250.335C1008.09 251.062 1008.99 252.053 1009.66 253.308C1010.35 254.564 1010.7 256.134 1010.7 258.017V277H1004.27V273.104H1004.05C1003.64 273.892 1003.07 274.63 1002.33 275.32C1001.61 275.997 1000.69 276.545 999.581 276.963C998.485 277.369 997.199 277.573 995.722 277.573ZM997.457 272.661C998.799 272.661 999.963 272.396 1000.95 271.867C1001.93 271.325 1002.69 270.611 1003.22 269.724C1003.76 268.838 1004.03 267.872 1004.03 266.825V263.483C1003.82 263.655 1003.46 263.815 1002.96 263.963C1002.47 264.111 1001.91 264.24 1001.3 264.351C1000.68 264.462 1000.07 264.56 999.47 264.646C998.867 264.733 998.344 264.806 997.901 264.868C996.903 265.003 996.011 265.225 995.223 265.533C994.435 265.841 993.813 266.271 993.358 266.825C992.902 267.367 992.675 268.069 992.675 268.93C992.675 270.162 993.124 271.091 994.023 271.719C994.921 272.347 996.066 272.661 997.457 272.661Z" fill="black"/>
<path d="M1017.42 277V248.636H1023.9V253.364H1024.2C1024.71 251.726 1025.6 250.465 1026.86 249.578C1028.12 248.68 1029.57 248.23 1031.19 248.23C1031.56 248.23 1031.98 248.249 1032.43 248.286C1032.9 248.31 1033.29 248.353 1033.6 248.415V254.564C1033.31 254.466 1032.86 254.379 1032.25 254.305C1031.64 254.219 1031.06 254.176 1030.49 254.176C1029.27 254.176 1028.18 254.441 1027.21 254.97C1026.25 255.487 1025.49 256.207 1024.93 257.131C1024.38 258.054 1024.1 259.119 1024.1 260.325V277H1017.42Z" fill="black"/>
<path d="M1049.91 277V273.676L1062.4 260.011C1063.86 258.411 1065.07 257.02 1066.02 255.838C1066.96 254.644 1067.67 253.524 1068.12 252.477C1068.59 251.419 1068.82 250.311 1068.82 249.153C1068.82 247.824 1068.5 246.673 1067.86 245.7C1067.24 244.728 1066.37 243.977 1065.28 243.447C1064.18 242.918 1062.95 242.653 1061.59 242.653C1060.13 242.653 1058.86 242.955 1057.78 243.558C1056.71 244.149 1055.88 244.98 1055.29 246.051C1054.71 247.122 1054.42 248.378 1054.42 249.818H1050.06C1050.06 247.602 1050.57 245.657 1051.6 243.983C1052.62 242.309 1054.01 241.004 1055.77 240.068C1057.54 239.133 1059.53 238.665 1061.73 238.665C1063.95 238.665 1065.91 239.133 1067.62 240.068C1069.33 241.004 1070.68 242.266 1071.65 243.854C1072.62 245.442 1073.11 247.208 1073.11 249.153C1073.11 250.545 1072.86 251.905 1072.35 253.234C1071.86 254.552 1071 256.023 1069.77 257.648C1068.55 259.26 1066.85 261.23 1064.69 263.557L1056.19 272.642V272.938H1073.77V277H1049.91Z" fill="#777777"/>
<path d="M1093.73 277.517C1090.95 277.517 1088.58 276.76 1086.63 275.246C1084.67 273.719 1083.17 271.509 1082.14 268.617C1081.1 265.711 1080.59 262.203 1080.59 258.091C1080.59 254.004 1081.1 250.514 1082.14 247.621C1083.18 244.715 1084.69 242.5 1086.64 240.973C1088.61 239.434 1090.98 238.665 1093.73 238.665C1096.49 238.665 1098.85 239.434 1100.81 240.973C1102.78 242.5 1104.28 244.715 1105.31 247.621C1106.36 250.514 1106.88 254.004 1106.88 258.091C1106.88 262.203 1106.37 265.711 1105.33 268.617C1104.3 271.509 1102.8 273.719 1100.84 275.246C1098.89 276.76 1096.52 277.517 1093.73 277.517ZM1093.73 273.455C1096.49 273.455 1098.63 272.125 1100.16 269.466C1101.69 266.807 1102.45 263.015 1102.45 258.091C1102.45 254.816 1102.1 252.028 1101.4 249.726C1100.71 247.424 1099.71 245.67 1098.41 244.463C1097.11 243.257 1095.56 242.653 1093.73 242.653C1091 242.653 1088.87 244.001 1087.33 246.697C1085.79 249.381 1085.02 253.179 1085.02 258.091C1085.02 261.366 1085.36 264.148 1086.05 266.438C1086.74 268.727 1087.73 270.469 1089.03 271.663C1090.33 272.858 1091.9 273.455 1093.73 273.455Z" fill="#777777"/>
<path d="M1113.9 277V273.676L1126.38 260.011C1127.85 258.411 1129.05 257.02 1130 255.838C1130.95 254.644 1131.65 253.524 1132.11 252.477C1132.57 251.419 1132.81 250.311 1132.81 249.153C1132.81 247.824 1132.49 246.673 1131.85 245.7C1131.22 244.728 1130.36 243.977 1129.26 243.447C1128.17 242.918 1126.94 242.653 1125.57 242.653C1124.12 242.653 1122.85 242.955 1121.77 243.558C1120.69 244.149 1119.86 244.98 1119.27 246.051C1118.69 247.122 1118.4 248.378 1118.4 249.818H1114.05C1114.05 247.602 1114.56 245.657 1115.58 243.983C1116.6 242.309 1117.99 241.004 1119.75 240.068C1121.53 239.133 1123.51 238.665 1125.72 238.665C1127.93 238.665 1129.9 239.133 1131.61 240.068C1133.32 241.004 1134.66 242.266 1135.63 243.854C1136.61 245.442 1137.09 247.208 1137.09 249.153C1137.09 250.545 1136.84 251.905 1136.34 253.234C1135.84 254.552 1134.98 256.023 1133.75 257.648C1132.53 259.26 1130.84 261.23 1128.67 263.557L1120.18 272.642V272.938H1137.76V277H1113.9Z" fill="#777777"/>
<path d="M1145.38 277V273.676L1157.87 260.011C1159.33 258.411 1160.54 257.02 1161.49 255.838C1162.43 254.644 1163.14 253.524 1163.59 252.477C1164.06 251.419 1164.29 250.311 1164.29 249.153C1164.29 247.824 1163.97 246.673 1163.33 245.7C1162.7 244.728 1161.84 243.977 1160.75 243.447C1159.65 242.918 1158.42 242.653 1157.05 242.653C1155.6 242.653 1154.33 242.955 1153.25 243.558C1152.18 244.149 1151.35 244.98 1150.76 246.051C1150.18 247.122 1149.89 248.378 1149.89 249.818H1145.53C1145.53 247.602 1146.04 245.657 1147.06 243.983C1148.09 242.309 1149.48 241.004 1151.24 240.068C1153.01 239.133 1155 238.665 1157.2 238.665C1159.42 238.665 1161.38 239.133 1163.09 240.068C1164.8 241.004 1166.15 242.266 1167.12 243.854C1168.09 245.442 1168.58 247.208 1168.58 249.153C1168.58 250.545 1168.32 251.905 1167.82 253.234C1167.33 254.552 1166.47 256.023 1165.23 257.648C1164.02 259.26 1162.32 261.23 1160.16 263.557L1151.66 272.642V272.938H1169.24V277H1145.38Z" fill="#777777"/>
<path d="M346.48 287.286C342.664 287.286 339.278 286.762 336.324 285.716C333.382 284.682 330.901 283.155 328.882 281.136C326.863 279.13 325.33 276.668 324.284 273.75C323.238 270.832 322.714 267.502 322.714 263.76C322.714 260.116 323.244 256.841 324.303 253.936C325.361 251.031 326.9 248.556 328.919 246.513C330.95 244.457 333.419 242.887 336.324 241.804C339.229 240.721 342.528 240.179 346.222 240.179C349.755 240.179 352.869 240.733 355.565 241.841C358.261 242.949 360.527 244.469 362.361 246.402C364.207 248.335 365.598 250.551 366.534 253.05C367.47 255.549 367.937 258.19 367.937 260.972C367.937 262.917 367.814 264.819 367.568 266.678C367.322 268.524 366.866 270.198 366.202 271.7C365.549 273.19 364.601 274.384 363.358 275.283C362.127 276.169 360.527 276.631 358.557 276.668C357.51 276.705 356.495 276.582 355.51 276.298C354.525 276.015 353.688 275.56 352.999 274.932C352.309 274.292 351.891 273.479 351.743 272.494H351.521C351.226 273.221 350.733 273.898 350.044 274.526C349.355 275.141 348.474 275.634 347.403 276.003C346.345 276.36 345.114 276.508 343.71 276.446C342.159 276.385 340.762 276.034 339.518 275.394C338.275 274.753 337.21 273.867 336.324 272.734C335.45 271.602 334.779 270.26 334.311 268.709C333.843 267.158 333.609 265.434 333.609 263.538C333.609 261.716 333.874 260.085 334.403 258.645C334.933 257.192 335.653 255.943 336.564 254.896C337.487 253.838 338.546 253.001 339.74 252.385C340.934 251.77 342.196 251.382 343.526 251.222C344.818 251.074 346.006 251.111 347.089 251.332C348.173 251.554 349.071 251.893 349.786 252.348C350.512 252.804 350.967 253.302 351.152 253.844H351.392V251.776H355.935V268.912C355.935 269.885 356.187 270.709 356.692 271.386C357.209 272.064 357.941 272.402 358.889 272.402C360.009 272.402 360.884 271.99 361.511 271.165C362.152 270.34 362.601 269.072 362.859 267.361C363.13 265.65 363.266 263.458 363.266 260.787C363.266 258.916 363.013 257.155 362.509 255.506C362.016 253.844 361.284 252.342 360.311 251C359.351 249.646 358.169 248.483 356.766 247.51C355.362 246.538 353.762 245.787 351.964 245.257C350.179 244.728 348.204 244.463 346.037 244.463C343.095 244.463 340.479 244.919 338.189 245.83C335.899 246.728 333.966 248.027 332.391 249.726C330.827 251.425 329.639 253.462 328.827 255.838C328.027 258.202 327.626 260.855 327.626 263.797C327.626 266.862 328.039 269.583 328.864 271.959C329.688 274.323 330.907 276.317 332.52 277.942C334.133 279.567 336.127 280.798 338.503 281.635C340.879 282.484 343.618 282.909 346.72 282.909C348.099 282.909 349.453 282.786 350.783 282.54C352.112 282.306 353.294 282.035 354.328 281.727C355.375 281.432 356.156 281.192 356.673 281.007L357.966 285.051C357.203 285.408 356.187 285.759 354.919 286.104C353.663 286.449 352.297 286.732 350.82 286.953C349.355 287.175 347.908 287.286 346.48 287.286ZM344.781 271.922C346.382 271.922 347.668 271.602 348.641 270.962C349.625 270.322 350.333 269.368 350.764 268.1C351.207 266.819 351.429 265.219 351.429 263.298C351.417 261.427 351.177 259.938 350.709 258.83C350.253 257.709 349.539 256.909 348.567 256.429C347.607 255.937 346.369 255.69 344.855 255.69C343.464 255.69 342.276 256.029 341.291 256.706C340.319 257.383 339.574 258.3 339.057 259.457C338.552 260.615 338.294 261.901 338.281 263.317C338.294 264.806 338.503 266.21 338.909 267.527C339.328 268.832 340.005 269.891 340.94 270.703C341.888 271.516 343.169 271.922 344.781 271.922Z" fill="black"/>
<path d="M374.036 248.636H379.557V278.847C379.557 280.743 379.212 282.343 378.523 283.648C377.846 284.953 376.837 285.944 375.495 286.621C374.165 287.298 372.522 287.636 370.564 287.636C370.367 287.636 370.183 287.636 370.01 287.636C369.826 287.636 369.635 287.63 369.438 287.618V282.872C369.61 282.872 369.764 282.872 369.899 282.872C370.023 282.872 370.164 282.872 370.324 282.872C371.629 282.872 372.571 282.521 373.149 281.82C373.74 281.13 374.036 280.127 374.036 278.81V248.636ZM376.769 244.26C375.809 244.26 374.984 243.94 374.294 243.3C373.617 242.647 373.279 241.872 373.279 240.973C373.279 240.062 373.617 239.287 374.294 238.646C374.984 237.994 375.809 237.668 376.769 237.668C377.729 237.668 378.548 237.994 379.225 238.646C379.914 239.287 380.259 240.062 380.259 240.973C380.259 241.872 379.914 242.647 379.225 243.3C378.548 243.94 377.729 244.26 376.769 244.26Z" fill="black"/>
<path d="M395.239 277.628C393.442 277.628 391.817 277.296 390.364 276.631C388.912 275.954 387.761 274.975 386.911 273.695C386.074 272.414 385.656 270.845 385.656 268.986C385.656 267.386 385.963 266.068 386.579 265.034C387.194 264 388.025 263.181 389.072 262.578C390.118 261.975 391.288 261.52 392.58 261.212C393.873 260.904 395.19 260.67 396.532 260.51C398.231 260.313 399.61 260.153 400.668 260.03C401.727 259.895 402.496 259.679 402.977 259.384C403.457 259.088 403.697 258.608 403.697 257.943V257.814C403.697 256.201 403.241 254.952 402.33 254.065C401.432 253.179 400.09 252.736 398.305 252.736C396.446 252.736 394.981 253.148 393.91 253.973C392.851 254.786 392.119 255.69 391.712 256.688L386.523 255.506C387.139 253.782 388.038 252.391 389.219 251.332C390.414 250.261 391.786 249.486 393.337 249.006C394.888 248.513 396.52 248.267 398.231 248.267C399.363 248.267 400.564 248.403 401.832 248.673C403.112 248.932 404.306 249.412 405.414 250.114C406.534 250.815 407.451 251.819 408.165 253.124C408.879 254.416 409.236 256.097 409.236 258.165V277H403.844V273.122H403.623C403.266 273.836 402.73 274.538 402.016 275.227C401.302 275.917 400.385 276.489 399.265 276.945C398.145 277.4 396.803 277.628 395.239 277.628ZM396.44 273.196C397.966 273.196 399.271 272.895 400.354 272.291C401.45 271.688 402.281 270.9 402.847 269.928C403.426 268.943 403.715 267.89 403.715 266.77V263.114C403.518 263.311 403.137 263.495 402.57 263.668C402.016 263.828 401.382 263.969 400.668 264.092C399.954 264.203 399.259 264.308 398.582 264.406C397.905 264.493 397.338 264.566 396.883 264.628C395.812 264.763 394.833 264.991 393.947 265.311C393.073 265.631 392.371 266.093 391.842 266.696C391.325 267.287 391.066 268.075 391.066 269.06C391.066 270.426 391.571 271.46 392.58 272.162C393.59 272.851 394.876 273.196 396.44 273.196Z" fill="black"/>
<path d="M428.538 277.573C425.793 277.573 423.429 276.951 421.447 275.707C419.477 274.452 417.963 272.722 416.904 270.519C415.846 268.315 415.316 265.791 415.316 262.948C415.316 260.067 415.858 257.525 416.941 255.321C418.025 253.105 419.551 251.376 421.521 250.132C423.491 248.889 425.811 248.267 428.483 248.267C430.637 248.267 432.557 248.667 434.244 249.467C435.931 250.255 437.291 251.363 438.325 252.791C439.371 254.219 439.993 255.887 440.19 257.796H434.816C434.521 256.466 433.844 255.321 432.785 254.361C431.739 253.401 430.335 252.921 428.575 252.921C427.036 252.921 425.688 253.327 424.531 254.139C423.386 254.94 422.493 256.084 421.853 257.574C421.213 259.051 420.893 260.799 420.893 262.818C420.893 264.886 421.207 266.672 421.835 268.173C422.463 269.675 423.349 270.839 424.494 271.663C425.651 272.488 427.011 272.901 428.575 272.901C429.621 272.901 430.569 272.71 431.419 272.328C432.28 271.934 433.001 271.374 433.579 270.648C434.17 269.922 434.582 269.047 434.816 268.026H440.19C439.993 269.86 439.396 271.497 438.399 272.938C437.402 274.378 436.066 275.511 434.392 276.335C432.73 277.16 430.779 277.573 428.538 277.573Z" fill="black"/>
<path d="M451.173 267.379L451.136 260.639H452.096L463.397 248.636H470.008L457.119 262.301H456.251L451.173 267.379ZM446.094 277V239.182H451.616V277H446.094ZM464.006 277L453.85 263.52L457.654 259.661L470.783 277H464.006Z" fill="black"/>
<path d="M480.118 267.379L480.081 260.639H481.041L492.342 248.636H498.953L486.064 262.301H485.196L480.118 267.379ZM475.04 277V239.182H480.561V277H475.04ZM492.952 277L482.795 263.52L486.599 259.661L499.729 277H492.952Z" fill="black"/>
<path d="M322.068 351.925V346.182H352.241V351.925H340.553V384H333.757V351.925H322.068Z" fill="black"/>
<path d="M366.206 384.554C363.363 384.554 360.907 383.963 358.838 382.781C356.783 381.587 355.201 379.901 354.093 377.722C352.985 375.53 352.431 372.951 352.431 369.984C352.431 367.067 352.985 364.506 354.093 362.303C355.213 360.087 356.776 358.363 358.783 357.132C360.79 355.889 363.147 355.267 365.855 355.267C367.604 355.267 369.253 355.55 370.804 356.117C372.368 356.671 373.747 357.532 374.941 358.702C376.147 359.871 377.095 361.361 377.784 363.171C378.474 364.968 378.819 367.11 378.819 369.597V371.646H355.57V367.141H372.411C372.399 365.86 372.122 364.722 371.58 363.724C371.038 362.715 370.281 361.921 369.309 361.342C368.348 360.764 367.228 360.474 365.948 360.474C364.581 360.474 363.381 360.807 362.347 361.472C361.313 362.124 360.507 362.986 359.928 364.057C359.362 365.116 359.072 366.279 359.06 367.547V371.48C359.06 373.13 359.362 374.546 359.965 375.727C360.568 376.897 361.411 377.796 362.495 378.423C363.578 379.039 364.846 379.347 366.299 379.347C367.271 379.347 368.151 379.211 368.939 378.94C369.727 378.657 370.41 378.245 370.989 377.703C371.568 377.162 372.005 376.491 372.3 375.69L378.542 376.392C378.148 378.042 377.397 379.482 376.289 380.713C375.193 381.932 373.79 382.88 372.078 383.557C370.367 384.222 368.41 384.554 366.206 384.554Z" fill="black"/>
<path d="M396.846 384.554C394.014 384.554 391.583 383.932 389.552 382.689C387.533 381.446 385.976 379.728 384.88 377.537C383.797 375.333 383.255 372.797 383.255 369.929C383.255 367.048 383.809 364.506 384.917 362.303C386.025 360.087 387.588 358.363 389.607 357.132C391.638 355.889 394.039 355.267 396.809 355.267C399.111 355.267 401.148 355.692 402.921 356.541C404.706 357.378 406.128 358.566 407.187 360.105C408.245 361.632 408.849 363.417 408.996 365.46H402.607C402.349 364.094 401.733 362.955 400.761 362.044C399.8 361.121 398.514 360.659 396.901 360.659C395.535 360.659 394.335 361.028 393.3 361.767C392.266 362.493 391.46 363.54 390.881 364.906C390.315 366.273 390.032 367.91 390.032 369.818C390.032 371.751 390.315 373.413 390.881 374.804C391.448 376.183 392.242 377.248 393.263 377.999C394.298 378.737 395.51 379.107 396.901 379.107C397.886 379.107 398.766 378.922 399.542 378.553C400.33 378.171 400.988 377.623 401.518 376.909C402.047 376.195 402.41 375.327 402.607 374.305H408.996C408.836 376.312 408.245 378.091 407.224 379.642C406.202 381.181 404.811 382.387 403.05 383.261C401.29 384.123 399.222 384.554 396.846 384.554Z" fill="black"/>
<path d="M421.17 367.381V384H414.485V346.182H421.022V360.456H421.355C422.02 358.856 423.047 357.594 424.439 356.671C425.842 355.735 427.627 355.267 429.794 355.267C431.763 355.267 433.481 355.68 434.946 356.504C436.411 357.329 437.543 358.536 438.343 360.124C439.156 361.712 439.562 363.651 439.562 365.94V384H432.877V366.974C432.877 365.066 432.385 363.583 431.4 362.524C430.428 361.453 429.061 360.918 427.301 360.918C426.119 360.918 425.06 361.176 424.125 361.693C423.201 362.198 422.475 362.93 421.946 363.891C421.429 364.851 421.17 366.014 421.17 367.381Z" fill="black"/>
<path d="M459.57 346.182H467.953L479.181 373.585H479.624L490.851 346.182H499.235V384H492.661V358.019H492.31L481.858 383.889H476.946L466.495 357.963H466.144V384H459.57V346.182Z" fill="black"/>
<path d="M518.956 384.554C516.113 384.554 513.657 383.963 511.588 382.781C509.533 381.587 507.951 379.901 506.843 377.722C505.735 375.53 505.181 372.951 505.181 369.984C505.181 367.067 505.735 364.506 506.843 362.303C507.963 360.087 509.526 358.363 511.533 357.132C513.54 355.889 515.897 355.267 518.605 355.267C520.354 355.267 522.003 355.55 523.554 356.117C525.118 356.671 526.497 357.532 527.691 358.702C528.897 359.871 529.845 361.361 530.534 363.171C531.224 364.968 531.569 367.11 531.569 369.597V371.646H508.32V367.141H525.161C525.149 365.86 524.872 364.722 524.33 363.724C523.788 362.715 523.031 361.921 522.059 361.342C521.098 360.764 519.978 360.474 518.698 360.474C517.331 360.474 516.131 360.807 515.097 361.472C514.063 362.124 513.257 362.986 512.678 364.057C512.112 365.116 511.822 366.279 511.81 367.547V371.48C511.81 373.13 512.112 374.546 512.715 375.727C513.318 376.897 514.161 377.796 515.245 378.423C516.328 379.039 517.596 379.347 519.049 379.347C520.021 379.347 520.901 379.211 521.689 378.94C522.477 378.657 523.16 378.245 523.739 377.703C524.318 377.162 524.755 376.491 525.05 375.69L531.292 376.392C530.898 378.042 530.147 379.482 529.039 380.713C527.943 381.932 526.54 382.88 524.828 383.557C523.117 384.222 521.16 384.554 518.956 384.554Z" fill="black"/>
<path d="M543.908 367.381V384H537.224V355.636H543.613V360.456H543.945C544.598 358.868 545.638 357.606 547.066 356.671C548.506 355.735 550.285 355.267 552.403 355.267C554.36 355.267 556.065 355.686 557.518 356.523C558.983 357.36 560.115 358.573 560.915 360.161C561.728 361.749 562.128 363.675 562.116 365.94V384H555.431V366.974C555.431 365.079 554.939 363.595 553.954 362.524C552.981 361.453 551.633 360.918 549.91 360.918C548.74 360.918 547.7 361.176 546.789 361.693C545.89 362.198 545.183 362.93 544.665 363.891C544.161 364.851 543.908 366.014 543.908 367.381Z" fill="black"/>
<path d="M583.075 355.636V360.807H566.769V355.636H583.075ZM570.795 348.841H577.479V375.469C577.479 376.367 577.615 377.057 577.886 377.537C578.169 378.005 578.538 378.325 578.994 378.497C579.449 378.67 579.954 378.756 580.508 378.756C580.926 378.756 581.308 378.725 581.653 378.663C582.01 378.602 582.281 378.546 582.465 378.497L583.592 383.723C583.235 383.846 582.724 383.982 582.059 384.129C581.406 384.277 580.606 384.363 579.658 384.388C577.984 384.437 576.476 384.185 575.134 383.631C573.792 383.064 572.728 382.19 571.94 381.009C571.164 379.827 570.782 378.35 570.795 376.577V348.841Z" fill="black"/>
<path d="M600.733 384.554C597.963 384.554 595.562 383.945 593.531 382.726C591.5 381.507 589.924 379.802 588.804 377.611C587.696 375.42 587.142 372.859 587.142 369.929C587.142 366.999 587.696 364.432 588.804 362.229C589.924 360.025 591.5 358.314 593.531 357.095C595.562 355.876 597.963 355.267 600.733 355.267C603.502 355.267 605.903 355.876 607.934 357.095C609.966 358.314 611.535 360.025 612.643 362.229C613.763 364.432 614.324 366.999 614.324 369.929C614.324 372.859 613.763 375.42 612.643 377.611C611.535 379.802 609.966 381.507 607.934 382.726C605.903 383.945 603.502 384.554 600.733 384.554ZM600.77 379.199C602.271 379.199 603.527 378.787 604.537 377.962C605.546 377.125 606.297 376.004 606.789 374.601C607.294 373.198 607.547 371.634 607.547 369.911C607.547 368.175 607.294 366.605 606.789 365.202C606.297 363.786 605.546 362.66 604.537 361.823C603.527 360.985 602.271 360.567 600.77 360.567C599.231 360.567 597.95 360.985 596.929 361.823C595.919 362.66 595.162 363.786 594.657 365.202C594.165 366.605 593.919 368.175 593.919 369.911C593.919 371.634 594.165 373.198 594.657 374.601C595.162 376.004 595.919 377.125 596.929 377.962C597.95 378.787 599.231 379.199 600.77 379.199Z" fill="black"/>
<path d="M619.997 384V355.636H626.479V360.364H626.774C627.291 358.726 628.178 357.465 629.433 356.578C630.701 355.68 632.148 355.23 633.773 355.23C634.142 355.23 634.554 355.249 635.01 355.286C635.478 355.31 635.866 355.353 636.173 355.415V361.564C635.89 361.466 635.441 361.379 634.825 361.305C634.222 361.219 633.637 361.176 633.071 361.176C631.852 361.176 630.757 361.441 629.784 361.97C628.824 362.487 628.067 363.207 627.513 364.131C626.959 365.054 626.682 366.119 626.682 367.325V384H619.997Z" fill="black"/>
<path d="M640.614 384V355.636H647.299V384H640.614ZM643.975 351.611C642.916 351.611 642.005 351.26 641.242 350.558C640.479 349.844 640.097 348.989 640.097 347.992C640.097 346.982 640.479 346.126 641.242 345.425C642.005 344.711 642.916 344.354 643.975 344.354C645.046 344.354 645.957 344.711 646.708 345.425C647.471 346.126 647.853 346.982 647.853 347.992C647.853 348.989 647.471 349.844 646.708 350.558C645.957 351.26 645.046 351.611 643.975 351.611Z" fill="black"/>
<path d="M660.858 367.381V384H654.173V355.636H660.562V360.456H660.895C661.547 358.868 662.587 357.606 664.015 356.671C665.456 355.735 667.235 355.267 669.352 355.267C671.309 355.267 673.014 355.686 674.467 356.523C675.932 357.36 677.065 358.573 677.865 360.161C678.677 361.749 679.077 363.675 679.065 365.94V384H672.38V366.974C672.38 365.079 671.888 363.595 670.903 362.524C669.931 361.453 668.582 360.918 666.859 360.918C665.69 360.918 664.649 361.176 663.738 361.693C662.84 362.198 662.132 362.93 661.615 363.891C661.11 364.851 660.858 366.014 660.858 367.381Z" fill="black"/>
<path d="M698.196 395.227C695.795 395.227 693.733 394.901 692.01 394.249C690.286 393.608 688.901 392.747 687.855 391.663C686.808 390.58 686.082 389.38 685.676 388.063L691.696 386.604C691.967 387.158 692.36 387.706 692.877 388.247C693.395 388.801 694.09 389.257 694.964 389.614C695.851 389.983 696.965 390.168 698.306 390.168C700.202 390.168 701.772 389.706 703.015 388.783C704.259 387.872 704.88 386.37 704.88 384.277V378.903H704.548C704.203 379.593 703.698 380.301 703.034 381.027C702.381 381.753 701.513 382.363 700.43 382.855C699.359 383.348 698.011 383.594 696.386 383.594C694.207 383.594 692.231 383.083 690.458 382.061C688.698 381.027 687.295 379.488 686.248 377.445C685.214 375.389 684.697 372.816 684.697 369.726C684.697 366.611 685.214 363.983 686.248 361.841C687.295 359.687 688.704 358.055 690.477 356.948C692.25 355.827 694.226 355.267 696.404 355.267C698.066 355.267 699.433 355.55 700.504 356.117C701.587 356.671 702.449 357.341 703.089 358.129C703.729 358.905 704.216 359.637 704.548 360.327H704.917V355.636H711.51V384.462C711.51 386.887 710.931 388.894 709.774 390.482C708.617 392.07 707.035 393.258 705.028 394.046C703.021 394.833 700.744 395.227 698.196 395.227ZM698.251 378.349C699.667 378.349 700.873 378.005 701.87 377.315C702.868 376.626 703.625 375.635 704.142 374.342C704.659 373.05 704.917 371.499 704.917 369.689C704.917 367.904 704.659 366.341 704.142 364.999C703.637 363.657 702.886 362.617 701.889 361.878C700.904 361.127 699.691 360.751 698.251 360.751C696.761 360.751 695.518 361.139 694.521 361.915C693.524 362.69 692.773 363.755 692.268 365.109C691.763 366.451 691.511 367.978 691.511 369.689C691.511 371.425 691.763 372.945 692.268 374.25C692.785 375.543 693.542 376.552 694.539 377.278C695.549 377.992 696.786 378.349 698.251 378.349Z" fill="black"/>
<path d="M340.239 533.803C340.611 533.556 341.07 533.333 341.6 533.162V537.238C341.119 537.087 340.662 536.871 340.239 536.597C339.368 536.016 339.2 535.474 339.2 535.2C339.2 534.926 339.368 534.384 340.239 533.803ZM346.4 546.838V542.762C346.928 542.933 347.389 543.156 347.761 543.403C348.634 543.986 348.8 544.526 348.8 544.8C348.8 545.074 348.632 545.616 347.761 546.197C347.339 546.471 346.881 546.687 346.4 546.838Z" fill="#DDB62D"/>
<path fill-rule="evenodd" clip-rule="evenodd" d="M344 559.2C349.092 559.2 353.976 557.177 357.576 553.576C361.177 549.976 363.2 545.092 363.2 540C363.2 534.908 361.177 530.024 357.576 526.424C353.976 522.823 349.092 520.8 344 520.8C338.908 520.8 334.024 522.823 330.424 526.424C326.823 530.024 324.8 534.908 324.8 540C324.8 545.092 326.823 549.976 330.424 553.576C334.024 557.177 338.908 559.2 344 559.2V559.2ZM346.4 528C346.4 527.364 346.147 526.753 345.697 526.303C345.247 525.853 344.637 525.6 344 525.6C343.363 525.6 342.753 525.853 342.303 526.303C341.853 526.753 341.6 527.364 341.6 528V528.221C340.166 528.476 338.799 529.016 337.578 529.81C335.845 530.962 334.4 532.822 334.4 535.2C334.4 537.576 335.845 539.436 337.578 540.59C338.73 541.358 340.107 541.898 341.6 542.179V546.838C340.662 546.533 339.968 546.077 339.577 545.628C339.374 545.379 339.123 545.173 338.839 545.023C338.555 544.872 338.243 544.781 337.923 544.753C337.603 544.725 337.28 544.762 336.975 544.862C336.669 544.961 336.386 545.121 336.144 545.331C335.901 545.542 335.703 545.799 335.561 546.088C335.42 546.376 335.338 546.69 335.32 547.011C335.302 547.332 335.349 547.653 335.458 547.956C335.566 548.258 335.735 548.536 335.953 548.772C337.302 550.33 339.344 551.354 341.6 551.779V552C341.6 552.637 341.853 553.247 342.303 553.697C342.753 554.147 343.363 554.4 344 554.4C344.637 554.4 345.247 554.147 345.697 553.697C346.147 553.247 346.4 552.637 346.4 552V551.779C347.834 551.524 349.201 550.984 350.422 550.19C352.155 549.038 353.6 547.178 353.6 544.8C353.6 542.424 352.155 540.564 350.422 539.41C349.201 538.616 347.834 538.076 346.4 537.821V533.162C347.338 533.467 348.032 533.923 348.423 534.372C348.628 534.615 348.879 534.815 349.162 534.96C349.445 535.106 349.754 535.193 350.071 535.218C350.388 535.243 350.707 535.204 351.009 535.105C351.311 535.006 351.59 534.847 351.83 534.639C352.071 534.43 352.267 534.176 352.408 533.892C352.55 533.607 352.633 533.297 352.653 532.979C352.674 532.662 352.631 532.344 352.527 532.043C352.424 531.742 352.261 531.465 352.05 531.228C350.698 529.67 348.658 528.646 346.4 528.221V528Z" fill="#DDB62D"/>
<path fill-rule="evenodd" clip-rule="evenodd" d="M820 866L820 226L821 226L821 866L820 866Z" fill="#E1E1E1"/>
<path d="M325 628C325 614.745 335.745 604 349 604H723C736.255 604 747 614.745 747 628V628C747 641.255 736.255 652 723 652H349C335.745 652 325 641.255 325 628V628Z" fill="#F0F0F0"/>
<path d="M325 703C325 689.745 335.745 679 349 679H613C626.255 679 637 689.745 637 703V703C637 716.255 626.255 727 613 727H349C335.745 727 325 716.255 325 703V703Z" fill="#F0F0F0"/>
</g>
<defs>
<clipPath id="clip0_3_482">
<rect width="2125" height="866" fill="white"/>
</clipPath>
</defs>
</svg>
