<svg width="308" height="84" viewBox="0 0 308 84" fill="none" xmlns="http://www.w3.org/2000/svg">
<circle cx="31.1765" cy="32.1765" r="21.1765" fill="#57D7FF" fill-opacity="0.8"/>
<circle cx="31.1765" cy="57.8235" r="21.1765" fill="#51ABFF" fill-opacity="0.8"/>
<path d="M87.888 61.448C89.1947 61.448 90.5013 61.3173 91.808 61.056C93.1147 60.7947 94.328 60.3093 95.448 59.6C96.568 58.8907 97.4453 57.9573 98.08 56.8C98.752 55.6053 99.088 54.3547 99.088 53.048C99.088 52.152 98.92 51.2747 98.584 50.416C98.248 49.5573 97.7627 48.8107 97.128 48.176C96.5307 47.504 95.84 46.944 95.056 46.496C94.272 46.048 93.4507 45.6747 92.592 45.376C91.7707 45.0773 90.9307 44.816 90.072 44.592C89.2133 44.3307 88.3547 44.088 87.496 43.864C86.6373 43.6027 85.7787 43.3227 84.92 43.024C84.0613 42.7253 83.3147 42.2213 82.68 41.512C82.0453 40.8027 81.728 40 81.728 39.104C81.728 38.3947 81.9333 37.7413 82.344 37.144C82.7547 36.5467 83.2773 36.08 83.912 35.744C84.5467 35.408 85.2 35.184 85.872 35.072C86.5813 34.96 87.2907 34.904 88 34.904C88.7093 34.904 89.4 34.96 90.072 35.072C90.744 35.184 91.3787 35.3893 91.976 35.688C92.6107 35.9867 93.1333 36.4347 93.544 37.032C93.9547 37.592 94.16 38.2267 94.16 38.936H98.64C98.64 37.6667 98.3227 36.472 97.688 35.352C97.0907 34.232 96.2507 33.336 95.168 32.664C94.1227 31.9547 92.984 31.488 91.752 31.264C90.52 31.0027 89.2693 30.872 88 30.872C86.7307 30.872 85.4613 31.0027 84.192 31.264C82.96 31.5253 81.8027 32.0293 80.72 32.776C79.6373 33.4853 78.7973 34.4373 78.2 35.632C77.6027 36.7893 77.304 38.0027 77.304 39.272C77.304 40.168 77.472 41.0453 77.808 41.904C78.144 42.7253 78.6107 43.472 79.208 44.144C79.8427 44.816 80.552 45.376 81.336 45.824C82.12 46.272 82.9227 46.6453 83.744 46.944C84.6027 47.2053 85.4613 47.4667 86.32 47.728C87.1787 47.9893 88.0373 48.232 88.896 48.456C89.7547 48.68 90.6133 48.9413 91.472 49.24C92.3307 49.5387 93.0773 50.0427 93.712 50.752C94.3467 51.4613 94.664 52.264 94.664 53.16C94.664 53.9067 94.4213 54.5973 93.936 55.232C93.488 55.8293 92.928 56.296 92.256 56.632C91.584 56.9307 90.8747 57.136 90.128 57.248C89.3813 57.36 88.6347 57.416 87.888 57.416C87.1787 57.416 86.4693 57.36 85.76 57.248C85.0507 57.136 84.36 56.9307 83.688 56.632C83.016 56.3333 82.4373 55.8853 81.952 55.288C81.504 54.6533 81.28 53.9813 81.28 53.272H76.8C76.8 54.5787 77.136 55.8107 77.808 56.968C78.48 58.088 79.376 59.0027 80.496 59.712C81.616 60.384 82.8107 60.832 84.08 61.056C85.3493 61.3173 86.6187 61.448 87.888 61.448Z" fill="#444444"/>
<path d="M116.112 61.448C117.381 61.448 118.651 61.2987 119.92 61C121.189 60.7387 122.365 60.2347 123.448 59.488C124.531 58.704 125.371 57.7333 125.968 56.576C126.565 55.3813 126.901 54.1493 126.976 52.88H122.496C122.459 53.8507 122.104 54.728 121.432 55.512C120.76 56.2587 119.939 56.7627 118.968 57.024C118.035 57.2853 117.083 57.416 116.112 57.416C115.141 57.416 114.189 57.248 113.256 56.912C112.36 56.5387 111.595 55.9787 110.96 55.232C110.363 54.448 109.952 53.5893 109.728 52.656C109.504 51.7227 109.392 50.7707 109.392 49.8V48.176H127.088V42.52C127.088 41.288 126.957 40.0747 126.696 38.88C126.472 37.6853 126.024 36.5653 125.352 35.52C124.717 34.4373 123.896 33.5413 122.888 32.832C121.917 32.0853 120.835 31.5813 119.64 31.32C118.445 31.0213 117.232 30.872 116 30.872C114.768 30.872 113.555 31.0213 112.36 31.32C111.165 31.5813 110.064 32.0853 109.056 32.832C108.085 33.5413 107.264 34.4373 106.592 35.52C105.957 36.5653 105.509 37.6853 105.248 38.88C105.024 40.0747 104.912 41.288 104.912 42.52V49.8C104.912 51.032 105.024 52.2453 105.248 53.44C105.509 54.6347 105.976 55.7733 106.648 56.856C107.32 57.9013 108.16 58.7973 109.168 59.544C110.176 60.2533 111.277 60.7387 112.472 61C113.667 61.2987 114.88 61.448 116.112 61.448ZM109.392 44.144V42.52C109.392 41.5493 109.504 40.5973 109.728 39.664C109.952 38.7307 110.363 37.8907 110.96 37.144C111.557 36.36 112.304 35.8 113.2 35.464C114.133 35.0907 115.067 34.904 116 34.904C116.971 34.904 117.904 35.0907 118.8 35.464C119.696 35.8 120.443 36.36 121.04 37.144C121.637 37.8907 122.048 38.7307 122.272 39.664C122.496 40.5973 122.608 41.5493 122.608 42.52V44.144H109.392Z" fill="#444444"/>
<path d="M143.888 61.448C145.195 61.448 146.501 61.3173 147.808 61.056C149.115 60.7947 150.328 60.3093 151.448 59.6C152.568 58.8907 153.445 57.9573 154.08 56.8C154.752 55.6053 155.088 54.3547 155.088 53.048C155.088 52.152 154.92 51.2747 154.584 50.416C154.248 49.5573 153.763 48.8107 153.128 48.176C152.531 47.504 151.84 46.944 151.056 46.496C150.272 46.048 149.451 45.6747 148.592 45.376C147.771 45.0773 146.931 44.816 146.072 44.592C145.213 44.3307 144.355 44.088 143.496 43.864C142.637 43.6027 141.779 43.3227 140.92 43.024C140.061 42.7253 139.315 42.2213 138.68 41.512C138.045 40.8027 137.728 40 137.728 39.104C137.728 38.3947 137.933 37.7413 138.344 37.144C138.755 36.5467 139.277 36.08 139.912 35.744C140.547 35.408 141.2 35.184 141.872 35.072C142.581 34.96 143.291 34.904 144 34.904C144.709 34.904 145.4 34.96 146.072 35.072C146.744 35.184 147.379 35.3893 147.976 35.688C148.611 35.9867 149.133 36.4347 149.544 37.032C149.955 37.592 150.16 38.2267 150.16 38.936H154.64C154.64 37.6667 154.323 36.472 153.688 35.352C153.091 34.232 152.251 33.336 151.168 32.664C150.123 31.9547 148.984 31.488 147.752 31.264C146.52 31.0027 145.269 30.872 144 30.872C142.731 30.872 141.461 31.0027 140.192 31.264C138.96 31.5253 137.803 32.0293 136.72 32.776C135.637 33.4853 134.797 34.4373 134.2 35.632C133.603 36.7893 133.304 38.0027 133.304 39.272C133.304 40.168 133.472 41.0453 133.808 41.904C134.144 42.7253 134.611 43.472 135.208 44.144C135.843 44.816 136.552 45.376 137.336 45.824C138.12 46.272 138.923 46.6453 139.744 46.944C140.603 47.2053 141.461 47.4667 142.32 47.728C143.179 47.9893 144.037 48.232 144.896 48.456C145.755 48.68 146.613 48.9413 147.472 49.24C148.331 49.5387 149.077 50.0427 149.712 50.752C150.347 51.4613 150.664 52.264 150.664 53.16C150.664 53.9067 150.421 54.5973 149.936 55.232C149.488 55.8293 148.928 56.296 148.256 56.632C147.584 56.9307 146.875 57.136 146.128 57.248C145.381 57.36 144.635 57.416 143.888 57.416C143.179 57.416 142.469 57.36 141.76 57.248C141.051 57.136 140.36 56.9307 139.688 56.632C139.016 56.3333 138.437 55.8853 137.952 55.288C137.504 54.6533 137.28 53.9813 137.28 53.272H132.8C132.8 54.5787 133.136 55.8107 133.808 56.968C134.48 58.088 135.376 59.0027 136.496 59.712C137.616 60.384 138.811 60.832 140.08 61.056C141.349 61.3173 142.619 61.448 143.888 61.448Z" fill="#444444"/>
<path d="M171.888 61.448C173.195 61.448 174.501 61.3173 175.808 61.056C177.115 60.7947 178.328 60.3093 179.448 59.6C180.568 58.8907 181.445 57.9573 182.08 56.8C182.752 55.6053 183.088 54.3547 183.088 53.048C183.088 52.152 182.92 51.2747 182.584 50.416C182.248 49.5573 181.763 48.8107 181.128 48.176C180.531 47.504 179.84 46.944 179.056 46.496C178.272 46.048 177.451 45.6747 176.592 45.376C175.771 45.0773 174.931 44.816 174.072 44.592C173.213 44.3307 172.355 44.088 171.496 43.864C170.637 43.6027 169.779 43.3227 168.92 43.024C168.061 42.7253 167.315 42.2213 166.68 41.512C166.045 40.8027 165.728 40 165.728 39.104C165.728 38.3947 165.933 37.7413 166.344 37.144C166.755 36.5467 167.277 36.08 167.912 35.744C168.547 35.408 169.2 35.184 169.872 35.072C170.581 34.96 171.291 34.904 172 34.904C172.709 34.904 173.4 34.96 174.072 35.072C174.744 35.184 175.379 35.3893 175.976 35.688C176.611 35.9867 177.133 36.4347 177.544 37.032C177.955 37.592 178.16 38.2267 178.16 38.936H182.64C182.64 37.6667 182.323 36.472 181.688 35.352C181.091 34.232 180.251 33.336 179.168 32.664C178.123 31.9547 176.984 31.488 175.752 31.264C174.52 31.0027 173.269 30.872 172 30.872C170.731 30.872 169.461 31.0027 168.192 31.264C166.96 31.5253 165.803 32.0293 164.72 32.776C163.637 33.4853 162.797 34.4373 162.2 35.632C161.603 36.7893 161.304 38.0027 161.304 39.272C161.304 40.168 161.472 41.0453 161.808 41.904C162.144 42.7253 162.611 43.472 163.208 44.144C163.843 44.816 164.552 45.376 165.336 45.824C166.12 46.272 166.923 46.6453 167.744 46.944C168.603 47.2053 169.461 47.4667 170.32 47.728C171.179 47.9893 172.037 48.232 172.896 48.456C173.755 48.68 174.613 48.9413 175.472 49.24C176.331 49.5387 177.077 50.0427 177.712 50.752C178.347 51.4613 178.664 52.264 178.664 53.16C178.664 53.9067 178.421 54.5973 177.936 55.232C177.488 55.8293 176.928 56.296 176.256 56.632C175.584 56.9307 174.875 57.136 174.128 57.248C173.381 57.36 172.635 57.416 171.888 57.416C171.179 57.416 170.469 57.36 169.76 57.248C169.051 57.136 168.36 56.9307 167.688 56.632C167.016 56.3333 166.437 55.8853 165.952 55.288C165.504 54.6533 165.28 53.9813 165.28 53.272H160.8C160.8 54.5787 161.136 55.8107 161.808 56.968C162.48 58.088 163.376 59.0027 164.496 59.712C165.616 60.384 166.811 60.832 168.08 61.056C169.349 61.3173 170.619 61.448 171.888 61.448Z" fill="#444444"/>
<path d="M190.2 61H209.8V56.968H202.632V31.32H190.984V35.352H198.152V56.968H190.2V61ZM200 26.112C200.635 26.112 201.232 25.9813 201.792 25.72C202.389 25.4587 202.819 25.048 203.08 24.488C203.379 23.8907 203.528 23.2747 203.528 22.64C203.528 22.0053 203.379 21.408 203.08 20.848C202.819 20.2507 202.389 19.8213 201.792 19.56C201.232 19.2613 200.635 19.112 200 19.112C199.365 19.112 198.749 19.2613 198.152 19.56C197.592 19.8213 197.181 20.2507 196.92 20.848C196.659 21.408 196.528 22.0053 196.528 22.64C196.528 23.2747 196.659 23.8907 196.92 24.488C197.181 25.048 197.592 25.4587 198.152 25.72C198.749 25.9813 199.365 26.112 200 26.112Z" fill="#444444"/>
<path d="M228 61.448C229.232 61.448 230.445 61.2987 231.64 61C232.835 60.7013 233.917 60.1973 234.888 59.488C235.896 58.7413 236.717 57.8453 237.352 56.8C238.024 55.7547 238.472 54.6347 238.696 53.44C238.957 52.2453 239.088 51.032 239.088 49.8V42.52C239.088 41.288 238.957 40.0747 238.696 38.88C238.472 37.6853 238.024 36.5653 237.352 35.52C236.717 34.4373 235.896 33.5413 234.888 32.832C233.917 32.0853 232.835 31.5813 231.64 31.32C230.445 31.0213 229.232 30.872 228 30.872C226.768 30.872 225.555 31.0213 224.36 31.32C223.165 31.5813 222.064 32.0853 221.056 32.832C220.085 33.5413 219.264 34.4373 218.592 35.52C217.957 36.5653 217.509 37.6853 217.248 38.88C217.024 40.0747 216.912 41.288 216.912 42.52V49.8C216.912 51.032 217.024 52.2453 217.248 53.44C217.509 54.6347 217.957 55.7547 218.592 56.8C219.264 57.8453 220.085 58.7413 221.056 59.488C222.064 60.1973 223.165 60.7013 224.36 61C225.555 61.2987 226.768 61.448 228 61.448ZM228 57.416C227.067 57.416 226.133 57.248 225.2 56.912C224.304 56.5387 223.557 55.9787 222.96 55.232C222.363 54.448 221.952 53.5893 221.728 52.656C221.504 51.6853 221.392 50.7333 221.392 49.8V42.52C221.392 41.5493 221.504 40.5973 221.728 39.664C221.952 38.7307 222.363 37.8907 222.96 37.144C223.557 36.36 224.304 35.8 225.2 35.464C226.133 35.0907 227.067 34.904 228 34.904C228.971 34.904 229.904 35.0907 230.8 35.464C231.696 35.8 232.443 36.36 233.04 37.144C233.637 37.8907 234.048 38.7307 234.272 39.664C234.496 40.5973 234.608 41.5493 234.608 42.52V49.8C234.608 50.7333 234.496 51.6853 234.272 52.656C234.048 53.5893 233.637 54.448 233.04 55.232C232.443 55.9787 231.696 56.5387 230.8 56.912C229.904 57.248 228.971 57.416 228 57.416Z" fill="#444444"/>
<path d="M245.36 61H249.84V42.52C249.84 41.5867 249.933 40.672 250.12 39.776C250.307 38.8427 250.661 37.984 251.184 37.2C251.744 36.416 252.453 35.8373 253.312 35.464C254.171 35.0907 255.067 34.904 256 34.904C256.933 34.904 257.829 35.0907 258.688 35.464C259.547 35.8373 260.237 36.416 260.76 37.2C261.32 37.984 261.693 38.8427 261.88 39.776C262.067 40.672 262.16 41.5867 262.16 42.52V61H266.64V42.52C266.64 41.4 266.565 40.2987 266.416 39.216C266.267 38.096 265.968 37.032 265.52 36.024C265.109 34.9787 264.512 34.0453 263.728 33.224C262.981 32.4027 262.067 31.8053 260.984 31.432C259.939 31.0587 258.856 30.872 257.736 30.872C256.616 30.872 255.496 31.0773 254.376 31.488C253.293 31.8987 252.36 32.552 251.576 33.448C250.829 34.344 250.251 35.3333 249.84 36.416V31.32H245.36V61Z" fill="#444444"/>
<path d="M283.888 61.448C285.195 61.448 286.501 61.3173 287.808 61.056C289.115 60.7947 290.328 60.3093 291.448 59.6C292.568 58.8907 293.445 57.9573 294.08 56.8C294.752 55.6053 295.088 54.3547 295.088 53.048C295.088 52.152 294.92 51.2747 294.584 50.416C294.248 49.5573 293.763 48.8107 293.128 48.176C292.531 47.504 291.84 46.944 291.056 46.496C290.272 46.048 289.451 45.6747 288.592 45.376C287.771 45.0773 286.931 44.816 286.072 44.592C285.213 44.3307 284.355 44.088 283.496 43.864C282.637 43.6027 281.779 43.3227 280.92 43.024C280.061 42.7253 279.315 42.2213 278.68 41.512C278.045 40.8027 277.728 40 277.728 39.104C277.728 38.3947 277.933 37.7413 278.344 37.144C278.755 36.5467 279.277 36.08 279.912 35.744C280.547 35.408 281.2 35.184 281.872 35.072C282.581 34.96 283.291 34.904 284 34.904C284.709 34.904 285.4 34.96 286.072 35.072C286.744 35.184 287.379 35.3893 287.976 35.688C288.611 35.9867 289.133 36.4347 289.544 37.032C289.955 37.592 290.16 38.2267 290.16 38.936H294.64C294.64 37.6667 294.323 36.472 293.688 35.352C293.091 34.232 292.251 33.336 291.168 32.664C290.123 31.9547 288.984 31.488 287.752 31.264C286.52 31.0027 285.269 30.872 284 30.872C282.731 30.872 281.461 31.0027 280.192 31.264C278.96 31.5253 277.803 32.0293 276.72 32.776C275.637 33.4853 274.797 34.4373 274.2 35.632C273.603 36.7893 273.304 38.0027 273.304 39.272C273.304 40.168 273.472 41.0453 273.808 41.904C274.144 42.7253 274.611 43.472 275.208 44.144C275.843 44.816 276.552 45.376 277.336 45.824C278.12 46.272 278.923 46.6453 279.744 46.944C280.603 47.2053 281.461 47.4667 282.32 47.728C283.179 47.9893 284.037 48.232 284.896 48.456C285.755 48.68 286.613 48.9413 287.472 49.24C288.331 49.5387 289.077 50.0427 289.712 50.752C290.347 51.4613 290.664 52.264 290.664 53.16C290.664 53.9067 290.421 54.5973 289.936 55.232C289.488 55.8293 288.928 56.296 288.256 56.632C287.584 56.9307 286.875 57.136 286.128 57.248C285.381 57.36 284.635 57.416 283.888 57.416C283.179 57.416 282.469 57.36 281.76 57.248C281.051 57.136 280.36 56.9307 279.688 56.632C279.016 56.3333 278.437 55.8853 277.952 55.288C277.504 54.6533 277.28 53.9813 277.28 53.272H272.8C272.8 54.5787 273.136 55.8107 273.808 56.968C274.48 58.088 275.376 59.0027 276.496 59.712C277.616 60.384 278.811 60.832 280.08 61.056C281.349 61.3173 282.619 61.448 283.888 61.448Z" fill="#444444"/>
</svg>
